%TF.GenerationSoftware,KiCad,Pcbnew,9.0.7*%
%TF.CreationDate,2026-03-14T21:05:24+05:30*%
%TF.ProjectId,SIMPLE BUZZER ALARM PCB,53494d50-4c45-4204-9255-5a5a45522041,rev?*%
%TF.SameCoordinates,Original*%
%TF.FileFunction,Copper,L1,Top*%
%TF.FilePolarity,Positive*%
%FSLAX46Y46*%
G04 Gerber Fmt 4.6, Leading zero omitted, Abs format (unit mm)*
G04 Created by KiCad (PCBNEW 9.0.7) date 2026-03-14 21:05:24*
%MOMM*%
%LPD*%
G01*
G04 APERTURE LIST*
G04 Aperture macros list*
%AMRoundRect*
0 Rectangle with rounded corners*
0 $1 Rounding radius*
0 $2 $3 $4 $5 $6 $7 $8 $9 X,Y pos of 4 corners*
0 Add a 4 corners polygon primitive as box body*
4,1,4,$2,$3,$4,$5,$6,$7,$8,$9,$2,$3,0*
0 Add four circle primitives for the rounded corners*
1,1,$1+$1,$2,$3*
1,1,$1+$1,$4,$5*
1,1,$1+$1,$6,$7*
1,1,$1+$1,$8,$9*
0 Add four rect primitives between the rounded corners*
20,1,$1+$1,$2,$3,$4,$5,0*
20,1,$1+$1,$4,$5,$6,$7,0*
20,1,$1+$1,$6,$7,$8,$9,0*
20,1,$1+$1,$8,$9,$2,$3,0*%
G04 Aperture macros list end*
%TA.AperFunction,NonConductor*%
%ADD10C,0.200000*%
%TD*%
%ADD11C,0.300000*%
%TA.AperFunction,NonConductor*%
%ADD12C,0.300000*%
%TD*%
%TA.AperFunction,EtchedComponent*%
%ADD13C,0.000000*%
%TD*%
%TA.AperFunction,ComponentPad*%
%ADD14C,1.600000*%
%TD*%
%TA.AperFunction,ComponentPad*%
%ADD15RoundRect,0.250000X-0.550000X-0.550000X0.550000X-0.550000X0.550000X0.550000X-0.550000X0.550000X0*%
%TD*%
%TA.AperFunction,ComponentPad*%
%ADD16O,1.800000X3.600000*%
%TD*%
%TA.AperFunction,ComponentPad*%
%ADD17RoundRect,0.250000X-0.650000X-1.550000X0.650000X-1.550000X0.650000X1.550000X-0.650000X1.550000X0*%
%TD*%
%TA.AperFunction,ComponentPad*%
%ADD18C,2.000000*%
%TD*%
%TA.AperFunction,ComponentPad*%
%ADD19R,2.000000X2.000000*%
%TD*%
%TA.AperFunction,Conductor*%
%ADD20C,0.200000*%
%TD*%
G04 APERTURE END LIST*
D10*
X127085000Y-58050000D02*
X161085000Y-58050000D01*
X161085000Y-87050000D01*
X127085000Y-87050000D01*
X127085000Y-58050000D01*
D11*
D12*
X153049153Y-61088328D02*
X152549153Y-60374042D01*
X152192010Y-61088328D02*
X152192010Y-59588328D01*
X152192010Y-59588328D02*
X152763439Y-59588328D01*
X152763439Y-59588328D02*
X152906296Y-59659757D01*
X152906296Y-59659757D02*
X152977725Y-59731185D01*
X152977725Y-59731185D02*
X153049153Y-59874042D01*
X153049153Y-59874042D02*
X153049153Y-60088328D01*
X153049153Y-60088328D02*
X152977725Y-60231185D01*
X152977725Y-60231185D02*
X152906296Y-60302614D01*
X152906296Y-60302614D02*
X152763439Y-60374042D01*
X152763439Y-60374042D02*
X152192010Y-60374042D01*
X153692010Y-60302614D02*
X154192010Y-60302614D01*
X154406296Y-61088328D02*
X153692010Y-61088328D01*
X153692010Y-61088328D02*
X153692010Y-59588328D01*
X153692010Y-59588328D02*
X154406296Y-59588328D01*
X154834868Y-59588328D02*
X155334868Y-61088328D01*
X155334868Y-61088328D02*
X155834868Y-59588328D01*
X156334867Y-60945471D02*
X156406296Y-61016900D01*
X156406296Y-61016900D02*
X156334867Y-61088328D01*
X156334867Y-61088328D02*
X156263439Y-61016900D01*
X156263439Y-61016900D02*
X156334867Y-60945471D01*
X156334867Y-60945471D02*
X156334867Y-61088328D01*
X156906296Y-59588328D02*
X157906296Y-59588328D01*
X157906296Y-59588328D02*
X157263439Y-61088328D01*
X158477724Y-60945471D02*
X158549153Y-61016900D01*
X158549153Y-61016900D02*
X158477724Y-61088328D01*
X158477724Y-61088328D02*
X158406296Y-61016900D01*
X158406296Y-61016900D02*
X158477724Y-60945471D01*
X158477724Y-60945471D02*
X158477724Y-61088328D01*
X159477725Y-59588328D02*
X159620582Y-59588328D01*
X159620582Y-59588328D02*
X159763439Y-59659757D01*
X159763439Y-59659757D02*
X159834868Y-59731185D01*
X159834868Y-59731185D02*
X159906296Y-59874042D01*
X159906296Y-59874042D02*
X159977725Y-60159757D01*
X159977725Y-60159757D02*
X159977725Y-60516900D01*
X159977725Y-60516900D02*
X159906296Y-60802614D01*
X159906296Y-60802614D02*
X159834868Y-60945471D01*
X159834868Y-60945471D02*
X159763439Y-61016900D01*
X159763439Y-61016900D02*
X159620582Y-61088328D01*
X159620582Y-61088328D02*
X159477725Y-61088328D01*
X159477725Y-61088328D02*
X159334868Y-61016900D01*
X159334868Y-61016900D02*
X159263439Y-60945471D01*
X159263439Y-60945471D02*
X159192010Y-60802614D01*
X159192010Y-60802614D02*
X159120582Y-60516900D01*
X159120582Y-60516900D02*
X159120582Y-60159757D01*
X159120582Y-60159757D02*
X159192010Y-59874042D01*
X159192010Y-59874042D02*
X159263439Y-59731185D01*
X159263439Y-59731185D02*
X159334868Y-59659757D01*
X159334868Y-59659757D02*
X159477725Y-59588328D01*
D13*
%TA.AperFunction,EtchedComponent*%
%TO.C,G\u002A\u002A\u002A*%
G36*
X128821591Y-66657189D02*
G01*
X128889480Y-66683116D01*
X128932460Y-66724198D01*
X128953158Y-66781733D01*
X128955997Y-66820953D01*
X128948426Y-66884940D01*
X128923826Y-66926131D01*
X128921730Y-66928086D01*
X128900676Y-66949601D01*
X128898929Y-66967739D01*
X128917818Y-66995058D01*
X128930399Y-67010123D01*
X128967797Y-67078600D01*
X128972637Y-67151978D01*
X128945124Y-67223790D01*
X128922783Y-67253267D01*
X128872231Y-67309889D01*
X128671004Y-67315725D01*
X128469777Y-67321560D01*
X128470794Y-67249206D01*
X128574564Y-67249206D01*
X128648250Y-67249110D01*
X128713065Y-67244645D01*
X128776118Y-67233812D01*
X128784194Y-67231718D01*
X128842212Y-67202253D01*
X128873067Y-67156983D01*
X128873619Y-67101802D01*
X128865244Y-67079486D01*
X128839804Y-67045166D01*
X128798908Y-67023394D01*
X128735855Y-67011779D01*
X128665588Y-67008204D01*
X128574564Y-67006476D01*
X128574564Y-67127841D01*
X128574564Y-67249206D01*
X128470794Y-67249206D01*
X128472501Y-67127841D01*
X128474491Y-66986305D01*
X128475126Y-66941164D01*
X128574564Y-66941164D01*
X128686279Y-66934050D01*
X128768257Y-66923631D01*
X128821062Y-66904049D01*
X128833651Y-66894668D01*
X128864859Y-66849201D01*
X128861590Y-66801642D01*
X128834632Y-66763746D01*
X128806443Y-66743565D01*
X128766482Y-66732842D01*
X128704524Y-66729170D01*
X128687260Y-66729070D01*
X128574564Y-66729070D01*
X128574564Y-66835117D01*
X128574564Y-66941164D01*
X128475126Y-66941164D01*
X128476617Y-66835117D01*
X128479206Y-66651049D01*
X128600571Y-66645612D01*
X128726164Y-66645120D01*
X128821591Y-66657189D01*
G37*
%TD.AperFunction*%
%TA.AperFunction,EtchedComponent*%
G36*
X129395584Y-66657572D02*
G01*
X129401645Y-66664053D01*
X129412263Y-66685739D01*
X129432417Y-66733345D01*
X129459705Y-66800656D01*
X129491725Y-66881455D01*
X129526077Y-66969527D01*
X129560358Y-67058658D01*
X129592167Y-67142630D01*
X129619103Y-67215229D01*
X129638764Y-67270239D01*
X129648749Y-67301445D01*
X129649513Y-67305578D01*
X129634676Y-67315409D01*
X129606979Y-67318558D01*
X129576840Y-67311357D01*
X129552265Y-67284671D01*
X129529934Y-67240537D01*
X129495422Y-67162517D01*
X129346100Y-67162517D01*
X129196778Y-67162517D01*
X129162266Y-67240537D01*
X129136469Y-67289980D01*
X129111559Y-67313406D01*
X129085220Y-67318558D01*
X129053001Y-67314475D01*
X129042687Y-67306858D01*
X129048685Y-67287089D01*
X129065089Y-67241269D01*
X129089516Y-67175574D01*
X129119582Y-67096183D01*
X129127387Y-67075827D01*
X129219375Y-67075827D01*
X129339086Y-67075827D01*
X129398446Y-67073727D01*
X129441275Y-67068204D01*
X129458746Y-67060430D01*
X129458796Y-67059971D01*
X129453101Y-67036080D01*
X129438263Y-66992005D01*
X129417651Y-66936308D01*
X129394634Y-66877551D01*
X129372581Y-66824296D01*
X129354860Y-66785104D01*
X129344842Y-66768538D01*
X129344141Y-66768594D01*
X129335218Y-66786710D01*
X129316958Y-66829630D01*
X129292521Y-66889810D01*
X129278341Y-66925628D01*
X129219375Y-67075827D01*
X129127387Y-67075827D01*
X129152903Y-67009275D01*
X129187095Y-66921027D01*
X129219774Y-66837618D01*
X129248557Y-66765226D01*
X129271059Y-66710029D01*
X129284897Y-66678207D01*
X129286404Y-66675212D01*
X129316518Y-66649742D01*
X129358606Y-66643310D01*
X129395584Y-66657572D01*
G37*
%TD.AperFunction*%
%TA.AperFunction,EtchedComponent*%
G36*
X129833484Y-66664581D02*
G01*
X129870499Y-66712541D01*
X129914341Y-66791035D01*
X129924496Y-66811356D01*
X129970648Y-66905695D01*
X130004262Y-66970721D01*
X130029570Y-67007473D01*
X130050805Y-67016988D01*
X130072197Y-67000304D01*
X130097981Y-66958458D01*
X130132389Y-66892490D01*
X130146284Y-66865742D01*
X130194746Y-66774859D01*
X130231410Y-66711310D01*
X130259373Y-66671117D01*
X130281734Y-66650302D01*
X130301588Y-66644885D01*
X130315677Y-66648134D01*
X130325325Y-66655887D01*
X130332447Y-66673707D01*
X130337408Y-66706140D01*
X130340574Y-66757732D01*
X130342308Y-66833028D01*
X130342977Y-66936575D01*
X130343028Y-66988594D01*
X130343028Y-67318558D01*
X130300187Y-67318558D01*
X130257345Y-67318558D01*
X130252507Y-67088831D01*
X130247670Y-66859104D01*
X130163911Y-67010810D01*
X130117117Y-67091405D01*
X130080394Y-67141000D01*
X130049690Y-67160267D01*
X130020956Y-67149875D01*
X129990142Y-67110495D01*
X129954561Y-67045486D01*
X129911811Y-66962536D01*
X129881447Y-66909615D01*
X129861335Y-66887536D01*
X129849340Y-66897114D01*
X129843325Y-66939161D01*
X129841157Y-67014492D01*
X129840781Y-67088831D01*
X129840229Y-67318558D01*
X129796885Y-67318558D01*
X129753540Y-67318558D01*
X129753540Y-66990161D01*
X129754455Y-66869692D01*
X129757091Y-66772475D01*
X129761286Y-66701653D01*
X129766878Y-66660371D01*
X129771033Y-66650953D01*
X129801071Y-66644827D01*
X129833484Y-66664581D01*
G37*
%TD.AperFunction*%
%TA.AperFunction,EtchedComponent*%
G36*
X131024801Y-66647478D02*
G01*
X131115182Y-66663398D01*
X131178201Y-66691898D01*
X131216883Y-66734637D01*
X131234256Y-66793273D01*
X131235929Y-66824428D01*
X131224765Y-66897622D01*
X131202736Y-66935486D01*
X131180886Y-66962849D01*
X131181796Y-66982898D01*
X131204795Y-67010992D01*
X131242258Y-67074724D01*
X131251715Y-67145246D01*
X131234652Y-67213240D01*
X131192551Y-67269390D01*
X131160135Y-67291399D01*
X131123928Y-67301932D01*
X131065595Y-67310398D01*
X130994148Y-67316453D01*
X130918598Y-67319750D01*
X130847954Y-67319946D01*
X130791229Y-67316693D01*
X130757433Y-67309647D01*
X130753358Y-67306999D01*
X130749410Y-67286445D01*
X130746292Y-67238060D01*
X130744016Y-67168678D01*
X130743090Y-67114326D01*
X130742593Y-67085133D01*
X130742085Y-67002563D01*
X130845827Y-67002563D01*
X130845827Y-67114326D01*
X130847714Y-67174077D01*
X130852637Y-67219525D01*
X130858830Y-67239479D01*
X130881656Y-67245112D01*
X130928449Y-67246640D01*
X130983858Y-67244071D01*
X131051878Y-67236014D01*
X131095063Y-67222840D01*
X131123200Y-67201327D01*
X131126896Y-67196974D01*
X131157735Y-67140966D01*
X131156085Y-67092138D01*
X131123761Y-67052604D01*
X131062577Y-67024481D01*
X130974348Y-67009883D01*
X130965918Y-67009349D01*
X130845827Y-67002563D01*
X130742085Y-67002563D01*
X130742034Y-66994260D01*
X130742349Y-66902895D01*
X130743499Y-66821538D01*
X130743551Y-66817870D01*
X130745650Y-66746021D01*
X130746634Y-66729070D01*
X130845827Y-66729070D01*
X130845827Y-66821538D01*
X130848097Y-66875923D01*
X130853920Y-66915459D01*
X130858830Y-66927397D01*
X130883967Y-66934338D01*
X130931560Y-66935124D01*
X130990161Y-66930877D01*
X131048322Y-66922718D01*
X131094596Y-66911771D01*
X131114733Y-66902309D01*
X131136623Y-66864177D01*
X131137259Y-66814003D01*
X131116947Y-66766903D01*
X131111877Y-66760776D01*
X131087028Y-66742670D01*
X131047901Y-66732788D01*
X130985564Y-66729206D01*
X130964505Y-66729070D01*
X130845827Y-66729070D01*
X130746634Y-66729070D01*
X130748658Y-66694183D01*
X130752323Y-66669805D01*
X130764757Y-66655656D01*
X130793172Y-66647201D01*
X130844269Y-66643233D01*
X130904030Y-66642477D01*
X131024801Y-66647478D01*
G37*
%TD.AperFunction*%
%TA.AperFunction,EtchedComponent*%
G36*
X131651045Y-66649881D02*
G01*
X131673553Y-66663176D01*
X131685127Y-66685609D01*
X131706145Y-66734018D01*
X131734158Y-66802090D01*
X131766719Y-66883509D01*
X131801380Y-66971962D01*
X131835694Y-67061132D01*
X131867212Y-67144706D01*
X131893487Y-67216368D01*
X131912072Y-67269803D01*
X131920518Y-67298698D01*
X131920775Y-67300973D01*
X131906036Y-67314532D01*
X131880399Y-67318558D01*
X131849627Y-67309584D01*
X131823369Y-67277952D01*
X131806713Y-67244872D01*
X131773403Y-67171186D01*
X131622800Y-67166192D01*
X131472196Y-67161199D01*
X131437392Y-67239878D01*
X131407919Y-67293515D01*
X131379180Y-67316813D01*
X131367961Y-67318558D01*
X131336288Y-67312861D01*
X131326325Y-67305554D01*
X131330122Y-67286107D01*
X131344813Y-67239495D01*
X131368617Y-67170830D01*
X131399754Y-67085224D01*
X131406767Y-67066599D01*
X131504666Y-67066599D01*
X131520539Y-67071150D01*
X131562305Y-67074447D01*
X131621189Y-67075821D01*
X131625882Y-67075827D01*
X131747099Y-67075827D01*
X131702066Y-66958797D01*
X131678436Y-66896407D01*
X131659187Y-66843804D01*
X131648362Y-66812044D01*
X131648179Y-66811425D01*
X131634121Y-66785772D01*
X131625270Y-66781083D01*
X131614651Y-66795827D01*
X131595570Y-66834127D01*
X131571784Y-66887089D01*
X131547050Y-66945818D01*
X131525126Y-67001420D01*
X131509768Y-67045000D01*
X131504666Y-67066599D01*
X131406767Y-67066599D01*
X131436442Y-66987789D01*
X131442572Y-66971800D01*
X131485217Y-66861638D01*
X131517992Y-66779746D01*
X131543082Y-66721882D01*
X131562672Y-66683803D01*
X131578947Y-66661267D01*
X131594090Y-66650032D01*
X131610286Y-66645854D01*
X131610417Y-66645838D01*
X131651045Y-66649881D01*
G37*
%TD.AperFunction*%
%TA.AperFunction,EtchedComponent*%
G36*
X132620427Y-66671735D02*
G01*
X132622957Y-66680265D01*
X132625966Y-66710517D01*
X132628011Y-66768739D01*
X132628991Y-66848237D01*
X132628808Y-66942314D01*
X132627904Y-67015145D01*
X132622960Y-67309889D01*
X132579615Y-67309889D01*
X132536270Y-67309889D01*
X132527601Y-67084496D01*
X132518932Y-66859104D01*
X132444668Y-67002908D01*
X132409415Y-67067037D01*
X132376970Y-67118789D01*
X132352249Y-67150625D01*
X132344329Y-67156717D01*
X132314087Y-67155970D01*
X132281066Y-67129361D01*
X132243092Y-67074386D01*
X132197992Y-66988541D01*
X132197493Y-66987508D01*
X132137499Y-66863288D01*
X132128830Y-67086589D01*
X132120161Y-67309889D01*
X132072103Y-67315411D01*
X132024046Y-67320934D01*
X132028759Y-66985992D01*
X132033472Y-66651049D01*
X132074708Y-66651049D01*
X132094328Y-66655322D01*
X132114601Y-66671303D01*
X132139037Y-66703738D01*
X132171142Y-66757370D01*
X132214426Y-66836945D01*
X132220176Y-66847782D01*
X132324409Y-67044514D01*
X132388943Y-66925802D01*
X132427178Y-66855276D01*
X132465345Y-66784568D01*
X132495134Y-66729070D01*
X132531518Y-66675714D01*
X132567840Y-66647108D01*
X132599132Y-66645149D01*
X132620427Y-66671735D01*
G37*
%TD.AperFunction*%
%TA.AperFunction,EtchedComponent*%
G36*
X129143929Y-64854638D02*
G01*
X129225111Y-64875293D01*
X129305589Y-64905443D01*
X129368889Y-64944220D01*
X129425165Y-64994675D01*
X129479338Y-65059406D01*
X129514869Y-65123839D01*
X129528715Y-65180769D01*
X129520174Y-65219549D01*
X129498013Y-65228629D01*
X129449408Y-65235105D01*
X129382556Y-65237959D01*
X129371529Y-65238012D01*
X129302711Y-65237403D01*
X129260058Y-65233840D01*
X129235061Y-65224721D01*
X129219211Y-65207442D01*
X129208508Y-65188147D01*
X129164725Y-65138243D01*
X129099752Y-65104972D01*
X129023453Y-65089540D01*
X128945693Y-65093152D01*
X128876334Y-65117014D01*
X128841124Y-65143254D01*
X128806551Y-65193519D01*
X128805807Y-65243943D01*
X128838837Y-65298485D01*
X128838967Y-65298636D01*
X128863172Y-65319875D01*
X128900989Y-65340555D01*
X128957789Y-65362851D01*
X129038941Y-65388940D01*
X129120707Y-65412785D01*
X129261844Y-65456581D01*
X129371791Y-65500245D01*
X129453903Y-65546671D01*
X129511534Y-65598753D01*
X129548039Y-65659383D01*
X129566772Y-65731456D01*
X129571224Y-65801389D01*
X129556157Y-65912947D01*
X129511413Y-66008410D01*
X129438599Y-66086639D01*
X129339323Y-66146494D01*
X129215192Y-66186839D01*
X129067814Y-66206534D01*
X128996674Y-66208367D01*
X128858502Y-66199992D01*
X128751496Y-66176091D01*
X128684885Y-66147482D01*
X128620326Y-66110972D01*
X128595455Y-66093297D01*
X128543434Y-66040811D01*
X128498913Y-65976075D01*
X128467925Y-65909913D01*
X128456503Y-65853151D01*
X128456983Y-65844838D01*
X128461629Y-65822461D01*
X128474418Y-65809048D01*
X128503020Y-65801780D01*
X128555108Y-65797838D01*
X128588852Y-65796373D01*
X128715837Y-65791253D01*
X128779569Y-65860447D01*
X128825512Y-65903882D01*
X128871621Y-65937516D01*
X128892109Y-65947921D01*
X128965258Y-65963872D01*
X129046918Y-65964030D01*
X129126055Y-65950133D01*
X129191631Y-65923918D01*
X129226947Y-65895203D01*
X129257979Y-65841074D01*
X129258660Y-65792401D01*
X129228060Y-65748202D01*
X129165248Y-65707496D01*
X129069294Y-65669300D01*
X128990673Y-65645885D01*
X128842075Y-65601608D01*
X128724757Y-65556728D01*
X128635375Y-65508754D01*
X128570586Y-65455193D01*
X128527046Y-65393555D01*
X128501410Y-65321347D01*
X128493643Y-65275489D01*
X128496573Y-65169313D01*
X128529241Y-65074422D01*
X128587971Y-64992825D01*
X128669089Y-64926534D01*
X128768919Y-64877559D01*
X128883785Y-64847911D01*
X129010014Y-64839600D01*
X129143929Y-64854638D01*
G37*
%TD.AperFunction*%
%TA.AperFunction,EtchedComponent*%
G36*
X132400860Y-64850570D02*
G01*
X132502719Y-64865819D01*
X132562277Y-64882585D01*
X132639766Y-64920878D01*
X132715010Y-64975516D01*
X132780279Y-65039088D01*
X132827838Y-65104178D01*
X132849029Y-65157502D01*
X132856346Y-65210249D01*
X132850780Y-65243905D01*
X132826914Y-65262705D01*
X132779327Y-65270888D01*
X132702601Y-65272687D01*
X132701684Y-65272688D01*
X132562596Y-65272688D01*
X132523426Y-65211854D01*
X132467696Y-65152604D01*
X132392015Y-65107449D01*
X132310501Y-65084015D01*
X132283732Y-65082352D01*
X132229101Y-65090089D01*
X132167785Y-65108820D01*
X132153522Y-65114828D01*
X132109177Y-65138911D01*
X132076156Y-65168676D01*
X132052859Y-65209260D01*
X132037687Y-65265799D01*
X132029044Y-65343428D01*
X132025331Y-65447284D01*
X132024803Y-65528478D01*
X132025161Y-65629803D01*
X132026769Y-65702929D01*
X132030428Y-65754331D01*
X132036939Y-65790481D01*
X132047103Y-65817855D01*
X132061720Y-65842927D01*
X132064159Y-65846608D01*
X132127097Y-65914535D01*
X132205895Y-65952288D01*
X132302462Y-65960714D01*
X132318527Y-65959508D01*
X132382035Y-65948261D01*
X132437160Y-65929515D01*
X132457230Y-65918202D01*
X132509401Y-65862343D01*
X132547121Y-65788523D01*
X132562231Y-65712882D01*
X132562250Y-65710469D01*
X132562277Y-65654121D01*
X132453049Y-65654121D01*
X132379516Y-65650576D01*
X132334024Y-65637041D01*
X132310398Y-65609168D01*
X132302464Y-65562607D01*
X132302209Y-65547864D01*
X132304607Y-65504195D01*
X132315006Y-65472679D01*
X132338219Y-65451358D01*
X132379054Y-65438272D01*
X132442322Y-65431462D01*
X132532835Y-65428969D01*
X132594724Y-65428728D01*
X132708594Y-65430192D01*
X132789183Y-65434651D01*
X132837767Y-65442208D01*
X132853554Y-65449534D01*
X132864969Y-65478979D01*
X132871779Y-65533863D01*
X132874095Y-65605271D01*
X132872027Y-65684288D01*
X132865684Y-65761998D01*
X132855178Y-65829487D01*
X132848523Y-65856191D01*
X132803330Y-65965292D01*
X132737132Y-66051150D01*
X132644608Y-66119963D01*
X132603011Y-66142161D01*
X132545956Y-66168810D01*
X132497790Y-66186117D01*
X132447430Y-66196401D01*
X132383794Y-66201983D01*
X132302878Y-66204989D01*
X132215752Y-66206393D01*
X132152716Y-66204041D01*
X132103263Y-66196554D01*
X132056890Y-66182554D01*
X132020026Y-66167884D01*
X131928548Y-66124209D01*
X131861611Y-66077595D01*
X131809512Y-66019634D01*
X131765294Y-65947090D01*
X131735975Y-65869464D01*
X131714497Y-65766725D01*
X131701065Y-65647582D01*
X131695880Y-65520746D01*
X131699147Y-65394926D01*
X131711067Y-65278833D01*
X131731844Y-65181177D01*
X131746486Y-65139945D01*
X131810207Y-65034372D01*
X131900733Y-64946539D01*
X131998796Y-64888102D01*
X132076638Y-64864153D01*
X132176885Y-64849844D01*
X132288604Y-64845280D01*
X132400860Y-64850570D01*
G37*
%TD.AperFunction*%
%TA.AperFunction,EtchedComponent*%
G36*
X130091629Y-65524087D02*
G01*
X130091629Y-66182926D01*
X129948318Y-66187966D01*
X129870757Y-66188955D01*
X129822779Y-66184943D01*
X129799575Y-66175382D01*
X129796393Y-66170560D01*
X129794555Y-66148628D01*
X129793093Y-66096018D01*
X129792032Y-66016726D01*
X129791397Y-65914748D01*
X129791212Y-65794080D01*
X129791502Y-65658719D01*
X129792290Y-65512659D01*
X129792332Y-65506680D01*
X129796885Y-64865247D01*
X129944257Y-64865247D01*
X130091629Y-64865247D01*
X130091629Y-65524087D01*
G37*
%TD.AperFunction*%
%TA.AperFunction,EtchedComponent*%
G36*
X131375637Y-64860211D02*
G01*
X131427026Y-64867155D01*
X131445544Y-64875211D01*
X131451997Y-64897458D01*
X131457585Y-64949585D01*
X131462293Y-65026807D01*
X131466108Y-65124341D01*
X131469018Y-65237401D01*
X131471007Y-65361202D01*
X131472064Y-65490960D01*
X131472174Y-65621890D01*
X131471324Y-65749207D01*
X131469501Y-65868127D01*
X131466691Y-65973864D01*
X131462880Y-66061634D01*
X131458056Y-66126652D01*
X131452205Y-66164133D01*
X131449185Y-66170790D01*
X131420717Y-66182139D01*
X131367546Y-66189537D01*
X131313187Y-66191595D01*
X131197994Y-66191595D01*
X130935266Y-65797158D01*
X130672537Y-65402722D01*
X130672493Y-65776353D01*
X130671795Y-65914149D01*
X130669649Y-66019793D01*
X130665925Y-66095785D01*
X130660489Y-66144624D01*
X130653210Y-66168810D01*
X130651642Y-66170790D01*
X130623597Y-66182495D01*
X130574749Y-66189523D01*
X130515860Y-66191911D01*
X130457693Y-66189699D01*
X130411012Y-66182923D01*
X130386579Y-66171621D01*
X130385611Y-66169854D01*
X130383834Y-66148087D01*
X130382429Y-66095637D01*
X130381418Y-66016493D01*
X130380825Y-65914645D01*
X130380672Y-65794085D01*
X130380982Y-65658803D01*
X130381777Y-65512788D01*
X130381820Y-65506680D01*
X130386373Y-64865247D01*
X130515513Y-64865247D01*
X130644653Y-64865247D01*
X130812970Y-65125315D01*
X130875071Y-65221512D01*
X130937694Y-65318948D01*
X130995483Y-65409260D01*
X131043081Y-65484083D01*
X131065264Y-65519248D01*
X131103504Y-65578185D01*
X131135645Y-65624003D01*
X131156911Y-65650067D01*
X131161918Y-65653616D01*
X131165737Y-65637238D01*
X131169504Y-65591044D01*
X131173006Y-65519890D01*
X131176029Y-65428635D01*
X131178358Y-65322138D01*
X131179255Y-65259684D01*
X131183915Y-64865247D01*
X131302507Y-64860085D01*
X131375637Y-64860211D01*
G37*
%TD.AperFunction*%
%TA.AperFunction,EtchedComponent*%
G36*
X133810133Y-64930264D02*
G01*
X133833745Y-64987082D01*
X133864831Y-65066192D01*
X133901828Y-65163234D01*
X133943173Y-65273849D01*
X133987303Y-65393677D01*
X134032656Y-65518360D01*
X134077669Y-65643538D01*
X134120781Y-65764852D01*
X134160428Y-65877942D01*
X134195048Y-65978450D01*
X134223078Y-66062015D01*
X134242956Y-66124279D01*
X134253119Y-66160882D01*
X134253979Y-66168561D01*
X134240341Y-66181346D01*
X134207708Y-66187923D01*
X134149894Y-66189128D01*
X134110093Y-66187995D01*
X133975608Y-66182926D01*
X133930638Y-66070230D01*
X133885667Y-65957534D01*
X133612873Y-65957534D01*
X133340078Y-65957534D01*
X133293111Y-66070230D01*
X133246144Y-66182926D01*
X133112003Y-66187995D01*
X133040394Y-66189225D01*
X132996644Y-66185661D01*
X132974149Y-66176364D01*
X132968070Y-66167548D01*
X132971990Y-66147017D01*
X132986566Y-66098364D01*
X133010234Y-66025922D01*
X133041431Y-65934021D01*
X133078593Y-65826991D01*
X133120157Y-65709165D01*
X133127433Y-65688797D01*
X133416497Y-65688797D01*
X133611241Y-65688797D01*
X133805986Y-65688797D01*
X133721144Y-65450401D01*
X133690350Y-65363876D01*
X133663314Y-65287916D01*
X133642356Y-65229043D01*
X133629801Y-65193782D01*
X133627687Y-65187851D01*
X133614949Y-65171772D01*
X133609247Y-65173522D01*
X133600241Y-65192441D01*
X133581853Y-65238174D01*
X133556338Y-65304870D01*
X133525955Y-65386680D01*
X133507960Y-65436072D01*
X133416497Y-65688797D01*
X133127433Y-65688797D01*
X133164559Y-65584871D01*
X133210236Y-65458441D01*
X133255623Y-65334207D01*
X133299159Y-65216498D01*
X133339278Y-65109645D01*
X133374418Y-65017980D01*
X133403014Y-64945833D01*
X133423504Y-64897535D01*
X133433547Y-64878251D01*
X133461297Y-64866102D01*
X133521804Y-64858910D01*
X133614317Y-64856578D01*
X133777879Y-64856578D01*
X133810133Y-64930264D01*
G37*
%TD.AperFunction*%
%TA.AperFunction,EtchedComponent*%
G36*
X135590512Y-64860085D02*
G01*
X135709103Y-64865247D01*
X135713937Y-65489411D01*
X135714796Y-65634664D01*
X135715089Y-65770103D01*
X135714845Y-65891532D01*
X135714095Y-65994754D01*
X135712867Y-66075570D01*
X135711191Y-66129784D01*
X135709272Y-66152585D01*
X135701604Y-66172679D01*
X135685526Y-66184372D01*
X135653132Y-66189909D01*
X135596517Y-66191534D01*
X135571925Y-66191595D01*
X135502155Y-66189946D01*
X135460044Y-66184086D01*
X135438692Y-66172647D01*
X135433552Y-66164171D01*
X135430433Y-66139312D01*
X135427650Y-66085261D01*
X135425349Y-66007501D01*
X135423679Y-65911517D01*
X135422788Y-65802790D01*
X135422686Y-65761065D01*
X135422344Y-65385384D01*
X135301040Y-65610776D01*
X135256028Y-65692294D01*
X135214430Y-65763762D01*
X135179953Y-65819089D01*
X135156301Y-65852187D01*
X135150696Y-65857841D01*
X135113084Y-65873276D01*
X135065170Y-65879513D01*
X135035906Y-65876285D01*
X135008890Y-65863991D01*
X134980999Y-65838718D01*
X134949111Y-65796552D01*
X134910105Y-65733580D01*
X134860857Y-65645888D01*
X134823121Y-65576100D01*
X134720844Y-65385384D01*
X134712175Y-65784155D01*
X134703506Y-66182926D01*
X134577555Y-66188026D01*
X134504895Y-66188818D01*
X134461765Y-66183583D01*
X134443443Y-66171710D01*
X134442969Y-66170619D01*
X134441125Y-66148673D01*
X134439658Y-66096050D01*
X134438594Y-66016745D01*
X134437955Y-65914757D01*
X134437767Y-65794080D01*
X134438055Y-65658712D01*
X134438843Y-65512648D01*
X134438885Y-65506680D01*
X134443438Y-64865247D01*
X134572700Y-64865247D01*
X134701963Y-64865247D01*
X134821285Y-65081971D01*
X134871343Y-65172885D01*
X134922051Y-65264970D01*
X134967826Y-65348088D01*
X135003089Y-65412106D01*
X135006154Y-65417670D01*
X135071700Y-65536645D01*
X135249153Y-65214588D01*
X135303058Y-65117774D01*
X135352542Y-65030810D01*
X135394793Y-64958487D01*
X135426997Y-64905595D01*
X135446342Y-64876926D01*
X135449263Y-64873727D01*
X135478266Y-64864482D01*
X135531546Y-64859741D01*
X135590512Y-64860085D01*
G37*
%TD.AperFunction*%
%TA.AperFunction,EtchedComponent*%
G36*
X130876594Y-59270038D02*
G01*
X130914968Y-59312252D01*
X130938553Y-59378558D01*
X130953657Y-59409179D01*
X130985083Y-59454299D01*
X131026449Y-59506473D01*
X131071373Y-59558257D01*
X131113471Y-59602205D01*
X131146362Y-59630874D01*
X131160877Y-59637875D01*
X131181099Y-59628495D01*
X131223506Y-59602924D01*
X131281986Y-59565013D01*
X131350428Y-59518613D01*
X131353804Y-59516277D01*
X131529333Y-59394678D01*
X131647034Y-59511477D01*
X131703422Y-59569166D01*
X131738611Y-59610912D01*
X131757302Y-59643824D01*
X131764198Y-59675014D01*
X131764708Y-59689424D01*
X131764681Y-59750571D01*
X132016107Y-59745346D01*
X132267533Y-59740121D01*
X132267533Y-60009304D01*
X132267533Y-60278486D01*
X132216619Y-60304815D01*
X132178515Y-60327579D01*
X132156237Y-60346502D01*
X132155834Y-60347116D01*
X132162713Y-60365784D01*
X132189618Y-60401658D01*
X132231375Y-60448124D01*
X132248667Y-60465791D01*
X132315892Y-60540597D01*
X132358777Y-60610702D01*
X132380825Y-60686327D01*
X132385538Y-60777696D01*
X132380861Y-60851527D01*
X132374817Y-60922394D01*
X132370163Y-60985758D01*
X132367858Y-61028474D01*
X132367818Y-61029957D01*
X132383317Y-61093258D01*
X132431636Y-61157494D01*
X132511027Y-61220878D01*
X132609136Y-61276476D01*
X132741381Y-61347943D01*
X132846030Y-61419858D01*
X132929852Y-61497320D01*
X132976558Y-61553305D01*
X133043768Y-61650217D01*
X133090548Y-61738638D01*
X133123617Y-61831644D01*
X133128253Y-61848455D01*
X133137185Y-61896332D01*
X133144160Y-61960796D01*
X133148969Y-62033880D01*
X133151403Y-62107615D01*
X133151252Y-62174032D01*
X133148306Y-62225162D01*
X133142356Y-62253038D01*
X133138969Y-62255896D01*
X133122665Y-62244057D01*
X133087860Y-62211856D01*
X133039727Y-62164264D01*
X132985604Y-62108524D01*
X132910385Y-62033177D01*
X132854175Y-61984972D01*
X132815741Y-61962899D01*
X132805662Y-61961152D01*
X132777019Y-61967391D01*
X132773772Y-61992610D01*
X132775357Y-62000162D01*
X132801506Y-62116568D01*
X132819645Y-62208566D01*
X132831084Y-62285148D01*
X132837132Y-62355306D01*
X132839100Y-62428032D01*
X132839124Y-62437943D01*
X132839167Y-62593984D01*
X132779182Y-62524633D01*
X132741272Y-62484718D01*
X132717511Y-62470757D01*
X132703916Y-62478272D01*
X132697807Y-62499075D01*
X132702444Y-62531722D01*
X132719428Y-62580993D01*
X132750357Y-62651668D01*
X132789074Y-62732688D01*
X132817309Y-62793290D01*
X132834821Y-62842243D01*
X132844141Y-62891798D01*
X132847800Y-62954205D01*
X132848352Y-63019662D01*
X132847443Y-63099820D01*
X132842912Y-63157750D01*
X132832051Y-63205887D01*
X132812154Y-63256667D01*
X132783928Y-63315625D01*
X132731224Y-63408722D01*
X132671216Y-63483684D01*
X132616253Y-63535783D01*
X132566797Y-63577940D01*
X132527914Y-63609480D01*
X132506450Y-63624898D01*
X132504619Y-63625589D01*
X132492430Y-63611729D01*
X132469019Y-63575621D01*
X132443181Y-63531581D01*
X132407768Y-63478469D01*
X132363988Y-63426040D01*
X132319377Y-63382001D01*
X132281474Y-63354061D01*
X132263842Y-63348182D01*
X132258481Y-63364090D01*
X132252568Y-63406174D01*
X132247237Y-63465976D01*
X132246405Y-63478293D01*
X132220010Y-63625796D01*
X132161941Y-63766436D01*
X132075181Y-63894534D01*
X131975499Y-63994019D01*
X131936982Y-64023414D01*
X131908912Y-64040193D01*
X131903452Y-64041698D01*
X131889052Y-64026937D01*
X131872070Y-63990454D01*
X131868616Y-63980575D01*
X131846911Y-63932538D01*
X131815717Y-63883047D01*
X131782274Y-63841791D01*
X131753823Y-63818458D01*
X131745855Y-63816305D01*
X131737412Y-63832030D01*
X131731680Y-63872796D01*
X131730059Y-63917186D01*
X131726382Y-63977042D01*
X131716734Y-64043217D01*
X131703187Y-64106875D01*
X131687815Y-64159180D01*
X131672690Y-64191294D01*
X131664370Y-64197191D01*
X131649173Y-64183293D01*
X131623560Y-64148258D01*
X131604967Y-64119076D01*
X131558383Y-64056991D01*
X131511421Y-64020514D01*
X131468570Y-64012340D01*
X131445357Y-64023220D01*
X131423172Y-64049418D01*
X131392490Y-64095004D01*
X131368363Y-64135475D01*
X131300117Y-64230977D01*
X131209853Y-64320486D01*
X131105733Y-64398300D01*
X130995916Y-64458717D01*
X130888565Y-64496033D01*
X130840943Y-64504003D01*
X130791153Y-64506633D01*
X130748045Y-64501351D01*
X130700126Y-64485216D01*
X130635904Y-64455287D01*
X130620434Y-64447558D01*
X130508903Y-64380904D01*
X130408775Y-64300809D01*
X130326356Y-64213502D01*
X130307747Y-64185371D01*
X130553877Y-64185371D01*
X130558096Y-64195060D01*
X130575553Y-64213673D01*
X130585590Y-64209855D01*
X130585758Y-64207431D01*
X130573444Y-64192766D01*
X130565742Y-64187414D01*
X130553877Y-64185371D01*
X130307747Y-64185371D01*
X130298725Y-64171732D01*
X130481731Y-64171732D01*
X130490400Y-64180401D01*
X130499069Y-64171732D01*
X130490400Y-64163063D01*
X130481731Y-64171732D01*
X130298725Y-64171732D01*
X130267950Y-64125210D01*
X130249072Y-64080708D01*
X130236328Y-64050367D01*
X130308352Y-64050367D01*
X130317021Y-64059036D01*
X130325690Y-64050367D01*
X130317021Y-64041698D01*
X130308352Y-64050367D01*
X130236328Y-64050367D01*
X130223853Y-64020668D01*
X130218874Y-64015691D01*
X130291014Y-64015691D01*
X130299683Y-64024360D01*
X130304963Y-64019080D01*
X130481731Y-64019080D01*
X130488469Y-64052216D01*
X130506468Y-64056213D01*
X130510078Y-64053036D01*
X130662134Y-64053036D01*
X130662437Y-64127147D01*
X130688949Y-64191478D01*
X130737370Y-64236663D01*
X130749101Y-64242489D01*
X130794510Y-64260555D01*
X130826338Y-64263976D01*
X130862154Y-64252423D01*
X130889286Y-64239867D01*
X130944220Y-64198477D01*
X130974466Y-64143658D01*
X130981977Y-64082732D01*
X130968709Y-64023022D01*
X130936616Y-63971849D01*
X130887653Y-63936535D01*
X130823774Y-63924403D01*
X130805471Y-63925881D01*
X130731831Y-63948479D01*
X130683945Y-63993892D01*
X130662134Y-64053036D01*
X130510078Y-64053036D01*
X130532405Y-64033388D01*
X130562956Y-63986062D01*
X130580715Y-63950002D01*
X130605751Y-63888377D01*
X130613697Y-63850194D01*
X130606627Y-63830238D01*
X130581294Y-63824200D01*
X130551603Y-63844466D01*
X130522290Y-63883876D01*
X130498089Y-63935272D01*
X130483736Y-63991494D01*
X130481731Y-64019080D01*
X130304963Y-64019080D01*
X130308352Y-64015691D01*
X130299683Y-64007022D01*
X130291014Y-64015691D01*
X130218874Y-64015691D01*
X130196231Y-63993058D01*
X130161651Y-63995699D01*
X130122987Y-64020411D01*
X130091669Y-64053585D01*
X130056451Y-64102789D01*
X130042269Y-64126358D01*
X129999545Y-64202350D01*
X129969286Y-64143834D01*
X129952129Y-64095392D01*
X129937873Y-64028117D01*
X129930575Y-63967203D01*
X129928462Y-63937670D01*
X130273676Y-63937670D01*
X130280020Y-63951941D01*
X130285235Y-63949229D01*
X130287310Y-63928653D01*
X130285235Y-63926112D01*
X130274928Y-63928492D01*
X130273676Y-63937670D01*
X129928462Y-63937670D01*
X129925120Y-63890958D01*
X130066173Y-63890958D01*
X130067815Y-63927123D01*
X130074997Y-63932763D01*
X130092180Y-63912684D01*
X130112130Y-63878692D01*
X130117636Y-63859023D01*
X130125329Y-63842312D01*
X130377704Y-63842312D01*
X130386373Y-63850981D01*
X130395042Y-63842312D01*
X130386373Y-63833643D01*
X130377704Y-63842312D01*
X130125329Y-63842312D01*
X130129411Y-63833446D01*
X130152392Y-63807636D01*
X130395042Y-63807636D01*
X130403711Y-63816305D01*
X130412380Y-63807636D01*
X130403711Y-63798967D01*
X130395042Y-63807636D01*
X130152392Y-63807636D01*
X130152721Y-63807266D01*
X130166031Y-63790298D01*
X130273676Y-63790298D01*
X130282345Y-63798967D01*
X130291014Y-63790298D01*
X130282345Y-63781629D01*
X130273676Y-63790298D01*
X130166031Y-63790298D01*
X130173716Y-63780501D01*
X130416630Y-63780501D01*
X130419002Y-63781629D01*
X130434824Y-63769424D01*
X130438386Y-63764292D01*
X130442804Y-63748083D01*
X130440433Y-63746954D01*
X130424611Y-63759159D01*
X130421049Y-63764292D01*
X130416630Y-63780501D01*
X130173716Y-63780501D01*
X130175483Y-63778248D01*
X130168853Y-63756899D01*
X130145572Y-63753569D01*
X130117280Y-63774567D01*
X130090410Y-63811491D01*
X130071401Y-63855939D01*
X130066173Y-63890958D01*
X129925120Y-63890958D01*
X129922124Y-63849087D01*
X129872909Y-63896239D01*
X129834303Y-63943848D01*
X129806221Y-63996631D01*
X129804610Y-64001213D01*
X129789796Y-64039554D01*
X129778212Y-64058580D01*
X129776992Y-64059036D01*
X129751461Y-64047983D01*
X129709034Y-64019053D01*
X129657634Y-63978588D01*
X129605181Y-63932928D01*
X129559596Y-63888415D01*
X129547941Y-63875662D01*
X129481336Y-63777484D01*
X129605019Y-63777484D01*
X129622061Y-63780261D01*
X129644549Y-63777073D01*
X129644817Y-63771155D01*
X129621612Y-63767016D01*
X129611586Y-63769786D01*
X129605019Y-63777484D01*
X129481336Y-63777484D01*
X129471650Y-63763207D01*
X129468744Y-63755623D01*
X129545485Y-63755623D01*
X129554154Y-63764292D01*
X129562823Y-63755623D01*
X129554154Y-63746954D01*
X129545485Y-63755623D01*
X129468744Y-63755623D01*
X129439903Y-63680364D01*
X129574417Y-63680364D01*
X129577994Y-63731794D01*
X129578161Y-63732791D01*
X129594292Y-63741326D01*
X129627870Y-63743086D01*
X129662867Y-63738949D01*
X129664345Y-63738285D01*
X130291014Y-63738285D01*
X130299683Y-63746954D01*
X130308352Y-63738285D01*
X130299683Y-63729616D01*
X130291014Y-63738285D01*
X129664345Y-63738285D01*
X129683252Y-63729794D01*
X129684188Y-63726977D01*
X129670108Y-63713925D01*
X129658182Y-63712278D01*
X129645343Y-63703609D01*
X130308352Y-63703609D01*
X130317021Y-63712278D01*
X130325690Y-63703609D01*
X130637772Y-63703609D01*
X130646441Y-63712278D01*
X130655110Y-63703609D01*
X130646441Y-63694940D01*
X130637772Y-63703609D01*
X130325690Y-63703609D01*
X130317021Y-63694940D01*
X130308352Y-63703609D01*
X129645343Y-63703609D01*
X129636899Y-63697907D01*
X129634048Y-63686271D01*
X130585758Y-63686271D01*
X130594427Y-63694940D01*
X130603096Y-63686271D01*
X130594427Y-63677602D01*
X130585758Y-63686271D01*
X129634048Y-63686271D01*
X129632175Y-63678625D01*
X129631659Y-63676473D01*
X130329941Y-63676473D01*
X130332313Y-63677602D01*
X130348135Y-63665397D01*
X130351697Y-63660264D01*
X130354060Y-63651595D01*
X130412380Y-63651595D01*
X130421049Y-63660264D01*
X130429717Y-63651595D01*
X130655110Y-63651595D01*
X130663779Y-63660264D01*
X130672448Y-63651595D01*
X130663779Y-63642926D01*
X130655110Y-63651595D01*
X130429717Y-63651595D01*
X130421049Y-63642926D01*
X130412380Y-63651595D01*
X130354060Y-63651595D01*
X130356115Y-63644055D01*
X130353743Y-63642926D01*
X130337921Y-63655132D01*
X130334359Y-63660264D01*
X130329941Y-63676473D01*
X129631659Y-63676473D01*
X129623896Y-63644128D01*
X129604604Y-63633735D01*
X129586186Y-63647452D01*
X129574417Y-63680364D01*
X129439903Y-63680364D01*
X129419965Y-63628337D01*
X129419904Y-63627973D01*
X129718864Y-63627973D01*
X129730829Y-63643129D01*
X129762894Y-63637197D01*
X129809317Y-63612209D01*
X129826408Y-63599582D01*
X130377704Y-63599582D01*
X130386373Y-63608251D01*
X130395042Y-63599582D01*
X130568421Y-63599582D01*
X130577089Y-63608251D01*
X130585758Y-63599582D01*
X130577089Y-63590913D01*
X130568421Y-63599582D01*
X130395042Y-63599582D01*
X130386373Y-63590913D01*
X130377704Y-63599582D01*
X129826408Y-63599582D01*
X129851447Y-63581083D01*
X129887920Y-63547568D01*
X130412380Y-63547568D01*
X130421049Y-63556237D01*
X130429717Y-63547568D01*
X130421049Y-63538899D01*
X130412380Y-63547568D01*
X129887920Y-63547568D01*
X129893017Y-63542884D01*
X129920428Y-63509764D01*
X129926919Y-63494394D01*
X129916334Y-63478217D01*
X131695383Y-63478217D01*
X131704052Y-63486885D01*
X131712721Y-63478217D01*
X131704052Y-63469548D01*
X131695383Y-63478217D01*
X129916334Y-63478217D01*
X129913813Y-63474364D01*
X129883375Y-63471042D01*
X129848924Y-63484921D01*
X129841153Y-63491220D01*
X129825293Y-63503640D01*
X129830413Y-63489480D01*
X129831797Y-63486885D01*
X129839499Y-63469197D01*
X129829932Y-63476144D01*
X129801852Y-63508954D01*
X129772381Y-63545618D01*
X129741347Y-63587492D01*
X129722034Y-63618922D01*
X129718864Y-63627973D01*
X129419904Y-63627973D01*
X129418049Y-63616920D01*
X129476134Y-63616920D01*
X129484803Y-63625589D01*
X129493472Y-63616920D01*
X129484803Y-63608251D01*
X129476134Y-63616920D01*
X129418049Y-63616920D01*
X129416432Y-63607283D01*
X129605136Y-63607283D01*
X129609529Y-63614501D01*
X129634697Y-63625048D01*
X129649009Y-63606491D01*
X129649513Y-63599582D01*
X129640694Y-63576501D01*
X129633198Y-63573575D01*
X129610558Y-63585047D01*
X129605136Y-63607283D01*
X129416432Y-63607283D01*
X129409322Y-63564906D01*
X129458796Y-63564906D01*
X129467465Y-63573575D01*
X129476134Y-63564906D01*
X129467465Y-63556237D01*
X129458796Y-63564906D01*
X129409322Y-63564906D01*
X129405633Y-63542924D01*
X129632175Y-63542924D01*
X129640493Y-63557767D01*
X129662102Y-63546758D01*
X129691979Y-63513491D01*
X129709978Y-63487230D01*
X129726007Y-63460879D01*
X130134973Y-63460879D01*
X130143642Y-63469548D01*
X130152311Y-63460879D01*
X130143642Y-63452210D01*
X130134973Y-63460879D01*
X129726007Y-63460879D01*
X129736553Y-63443541D01*
X129978932Y-63443541D01*
X129987601Y-63452210D01*
X129996270Y-63443541D01*
X129987601Y-63434872D01*
X129978932Y-63443541D01*
X129736553Y-63443541D01*
X129739489Y-63438715D01*
X129751391Y-63412364D01*
X129750167Y-63408865D01*
X129996270Y-63408865D01*
X130004939Y-63417534D01*
X130013608Y-63408865D01*
X130004939Y-63400196D01*
X129996270Y-63408865D01*
X129750167Y-63408865D01*
X129747672Y-63401734D01*
X129736827Y-63400196D01*
X129718781Y-63413305D01*
X129691230Y-63445289D01*
X129662250Y-63485135D01*
X129639918Y-63521830D01*
X129632175Y-63542924D01*
X129405633Y-63542924D01*
X129400594Y-63512892D01*
X129441458Y-63512892D01*
X129450127Y-63521561D01*
X129458796Y-63512892D01*
X129450127Y-63504223D01*
X129441458Y-63512892D01*
X129400594Y-63512892D01*
X129394108Y-63474241D01*
X129394080Y-63473882D01*
X129387525Y-63412911D01*
X129379141Y-63368240D01*
X129377966Y-63365520D01*
X129428842Y-63365520D01*
X129430195Y-63403019D01*
X129433653Y-63413314D01*
X129435022Y-63408865D01*
X129562823Y-63408865D01*
X129571492Y-63417534D01*
X129580161Y-63408865D01*
X129571492Y-63400196D01*
X129562823Y-63408865D01*
X129435022Y-63408865D01*
X129436356Y-63404531D01*
X129437094Y-63391527D01*
X129909581Y-63391527D01*
X129918250Y-63400196D01*
X129926919Y-63391527D01*
X129918250Y-63382858D01*
X129909581Y-63391527D01*
X129437094Y-63391527D01*
X129439064Y-63356851D01*
X130013608Y-63356851D01*
X130022277Y-63365520D01*
X130030946Y-63356851D01*
X130022277Y-63348182D01*
X130013608Y-63356851D01*
X129439064Y-63356851D01*
X129439225Y-63354008D01*
X129436356Y-63326510D01*
X129432068Y-63318294D01*
X129429348Y-63340077D01*
X129428842Y-63365520D01*
X129377966Y-63365520D01*
X129370605Y-63348474D01*
X129369568Y-63348182D01*
X129352258Y-63361418D01*
X129322183Y-63395728D01*
X129285323Y-63443013D01*
X129247659Y-63495176D01*
X129215172Y-63544119D01*
X129193843Y-63581743D01*
X129189880Y-63591476D01*
X129176483Y-63617207D01*
X129155682Y-63621854D01*
X129122496Y-63603915D01*
X129071948Y-63561888D01*
X129061964Y-63552870D01*
X128946519Y-63428641D01*
X128945005Y-63426203D01*
X129042687Y-63426203D01*
X129051356Y-63434872D01*
X129060025Y-63426203D01*
X129051356Y-63417534D01*
X129042687Y-63426203D01*
X128945005Y-63426203D01*
X128912697Y-63374189D01*
X129008011Y-63374189D01*
X129016680Y-63382858D01*
X129025349Y-63374189D01*
X129016680Y-63365520D01*
X129008011Y-63374189D01*
X128912697Y-63374189D01*
X128864676Y-63296877D01*
X128816608Y-63158304D01*
X128807745Y-63067490D01*
X128931800Y-63067490D01*
X128934147Y-63154863D01*
X128942099Y-63229036D01*
X128954037Y-63275150D01*
X128975750Y-63317117D01*
X128992581Y-63327640D01*
X129004796Y-63306037D01*
X129009979Y-63270162D01*
X129718864Y-63270162D01*
X129732743Y-63293148D01*
X129744871Y-63296169D01*
X130030946Y-63296169D01*
X130037290Y-63310440D01*
X130042505Y-63307727D01*
X130044580Y-63287151D01*
X130042505Y-63284610D01*
X130032197Y-63286990D01*
X130030946Y-63296169D01*
X129744871Y-63296169D01*
X129767857Y-63282290D01*
X129770878Y-63270162D01*
X129892243Y-63270162D01*
X129900912Y-63278831D01*
X129909581Y-63270162D01*
X129900912Y-63261493D01*
X129892243Y-63270162D01*
X129770878Y-63270162D01*
X129756999Y-63247176D01*
X129744871Y-63244155D01*
X129721885Y-63258033D01*
X129718864Y-63270162D01*
X129009979Y-63270162D01*
X129012656Y-63251629D01*
X129015701Y-63180625D01*
X129116185Y-63180625D01*
X129119642Y-63233159D01*
X129128526Y-63258960D01*
X129139140Y-63257508D01*
X129144086Y-63238073D01*
X129144428Y-63235486D01*
X129441458Y-63235486D01*
X129450127Y-63244155D01*
X129458796Y-63235486D01*
X130048284Y-63235486D01*
X130056953Y-63244155D01*
X130065622Y-63235486D01*
X130056953Y-63226817D01*
X130048284Y-63235486D01*
X129458796Y-63235486D01*
X129450127Y-63226817D01*
X129441458Y-63235486D01*
X129144428Y-63235486D01*
X129149016Y-63200810D01*
X129458796Y-63200810D01*
X129467465Y-63209479D01*
X129476134Y-63200810D01*
X129467465Y-63192141D01*
X129458796Y-63200810D01*
X129149016Y-63200810D01*
X129149722Y-63195474D01*
X129150866Y-63183472D01*
X130065622Y-63183472D01*
X130074291Y-63192141D01*
X130082960Y-63183472D01*
X130074291Y-63174804D01*
X130065622Y-63183472D01*
X129150866Y-63183472D01*
X129151692Y-63174804D01*
X129479428Y-63174804D01*
X129492151Y-63166135D01*
X129805554Y-63166135D01*
X129814223Y-63174804D01*
X129822892Y-63166135D01*
X129814223Y-63157466D01*
X129805554Y-63166135D01*
X129492151Y-63166135D01*
X129496150Y-63163410D01*
X129519479Y-63140128D01*
X129520379Y-63138999D01*
X129861818Y-63138999D01*
X129864190Y-63140128D01*
X129880012Y-63127922D01*
X129883574Y-63122790D01*
X129887992Y-63106581D01*
X129885621Y-63105452D01*
X129869798Y-63117658D01*
X129866236Y-63122790D01*
X129861818Y-63138999D01*
X129520379Y-63138999D01*
X129539501Y-63115012D01*
X129542191Y-63105452D01*
X129525469Y-63116846D01*
X129502141Y-63140128D01*
X129482118Y-63165244D01*
X129479428Y-63174804D01*
X129151692Y-63174804D01*
X129152595Y-63165331D01*
X129158747Y-63109655D01*
X129166212Y-63066029D01*
X129168744Y-63056935D01*
X130306775Y-63056935D01*
X130308876Y-63111645D01*
X130314186Y-63171278D01*
X130322031Y-63226049D01*
X130331736Y-63266174D01*
X130333474Y-63270719D01*
X130358567Y-63316537D01*
X130382286Y-63328315D01*
X130406271Y-63306557D01*
X130412921Y-63295157D01*
X130425688Y-63275850D01*
X130438995Y-63275900D01*
X130460041Y-63298755D01*
X130481737Y-63328102D01*
X130524209Y-63382403D01*
X130554160Y-63408668D01*
X130575627Y-63409331D01*
X130589442Y-63392998D01*
X130602869Y-63376415D01*
X130620131Y-63380691D01*
X130650642Y-63408339D01*
X130651995Y-63409691D01*
X130698093Y-63455788D01*
X130707857Y-63414989D01*
X130717622Y-63374189D01*
X130749043Y-63421868D01*
X130787560Y-63460719D01*
X130828369Y-63465029D01*
X130870281Y-63434758D01*
X130877405Y-63426203D01*
X130908866Y-63391382D01*
X130926343Y-63386613D01*
X130932426Y-63411487D01*
X130932516Y-63417534D01*
X130937935Y-63445880D01*
X130956072Y-63447253D01*
X130989743Y-63421005D01*
X131011287Y-63399413D01*
X131044088Y-63367501D01*
X131063507Y-63358761D01*
X131078938Y-63370217D01*
X131083703Y-63376475D01*
X131103259Y-63397224D01*
X131111330Y-63398930D01*
X131123990Y-63381232D01*
X131148521Y-63346087D01*
X131157530Y-63333079D01*
X131197936Y-63274631D01*
X131227742Y-63314145D01*
X131257548Y-63353660D01*
X131288419Y-63306544D01*
X131293529Y-63293722D01*
X131820453Y-63293722D01*
X131828134Y-63315410D01*
X131854618Y-63354181D01*
X131894502Y-63402290D01*
X131901942Y-63410529D01*
X131947013Y-63464147D01*
X131982715Y-63514534D01*
X132001800Y-63551384D01*
X132002363Y-63553330D01*
X132012457Y-63580724D01*
X132019793Y-63574331D01*
X132020693Y-63570548D01*
X132017022Y-63537670D01*
X132000376Y-63490827D01*
X131992914Y-63475190D01*
X131964999Y-63429621D01*
X131928689Y-63382021D01*
X131890003Y-63338722D01*
X131854962Y-63306060D01*
X131829584Y-63290369D01*
X131820453Y-63293722D01*
X131293529Y-63293722D01*
X131301083Y-63274765D01*
X131313189Y-63223852D01*
X131320079Y-63183472D01*
X132492926Y-63183472D01*
X132501595Y-63192141D01*
X132510264Y-63183472D01*
X132501595Y-63174804D01*
X132492926Y-63183472D01*
X131320079Y-63183472D01*
X131323582Y-63162941D01*
X131326360Y-63140128D01*
X132492926Y-63140128D01*
X132499269Y-63154399D01*
X132504484Y-63151686D01*
X132506559Y-63131110D01*
X132504484Y-63128569D01*
X132494177Y-63130949D01*
X132492926Y-63140128D01*
X131326360Y-63140128D01*
X131331104Y-63101171D01*
X131331391Y-63096783D01*
X132475588Y-63096783D01*
X132484257Y-63105452D01*
X132492926Y-63096783D01*
X132484257Y-63088114D01*
X132475588Y-63096783D01*
X131331391Y-63096783D01*
X131334602Y-63047680D01*
X131332917Y-63011605D01*
X131327016Y-63001425D01*
X131306804Y-63007505D01*
X131267666Y-63022597D01*
X131255941Y-63027432D01*
X131170855Y-63050400D01*
X131089200Y-63043782D01*
X131002313Y-63006722D01*
X130993199Y-63001425D01*
X130891655Y-62957684D01*
X130792405Y-62948504D01*
X130694913Y-62973883D01*
X130643649Y-63001425D01*
X130558318Y-63042344D01*
X130476578Y-63051587D01*
X130389981Y-63030000D01*
X130383699Y-63027432D01*
X130342405Y-63010814D01*
X130317298Y-63001903D01*
X130314904Y-63001425D01*
X130308560Y-63016933D01*
X130306775Y-63056935D01*
X129168744Y-63056935D01*
X129169718Y-63053438D01*
X129175622Y-63034972D01*
X129983183Y-63034972D01*
X129985555Y-63036100D01*
X130001377Y-63023895D01*
X130004939Y-63018763D01*
X130009357Y-63002554D01*
X130006986Y-63001425D01*
X129991163Y-63013630D01*
X129987601Y-63018763D01*
X129983183Y-63034972D01*
X129175622Y-63034972D01*
X129180196Y-63020667D01*
X129187972Y-62992756D01*
X130030946Y-62992756D01*
X130039615Y-63001425D01*
X130048284Y-62992756D01*
X130039615Y-62984087D01*
X130030946Y-62992756D01*
X129187972Y-62992756D01*
X129193962Y-62971255D01*
X129197388Y-62958080D01*
X129892243Y-62958080D01*
X129900912Y-62966749D01*
X129909581Y-62958080D01*
X129900912Y-62949411D01*
X129892243Y-62958080D01*
X129197388Y-62958080D01*
X129197814Y-62956440D01*
X129219086Y-62898286D01*
X129241541Y-62854053D01*
X129944257Y-62854053D01*
X129952926Y-62862722D01*
X129961595Y-62854053D01*
X129952926Y-62845384D01*
X129944257Y-62854053D01*
X129241541Y-62854053D01*
X129251679Y-62834082D01*
X129266979Y-62809469D01*
X129298177Y-62758538D01*
X129308849Y-62730464D01*
X129299109Y-62726952D01*
X129269070Y-62749707D01*
X129263331Y-62755011D01*
X129207510Y-62825894D01*
X129161534Y-62919818D01*
X129130041Y-63025545D01*
X129118728Y-63105618D01*
X129116185Y-63180625D01*
X129015701Y-63180625D01*
X129016425Y-63163733D01*
X129016857Y-63112665D01*
X129018233Y-63023046D01*
X129021827Y-62938455D01*
X129024939Y-62897397D01*
X129060025Y-62897397D01*
X129074068Y-62912779D01*
X129086031Y-62914735D01*
X129109104Y-62905373D01*
X129112038Y-62897397D01*
X129097995Y-62882016D01*
X129086031Y-62880060D01*
X129062959Y-62889421D01*
X129060025Y-62897397D01*
X129024939Y-62897397D01*
X129027068Y-62869310D01*
X129031163Y-62839356D01*
X129083647Y-62839356D01*
X129086269Y-62845769D01*
X129101276Y-62841541D01*
X129132214Y-62817356D01*
X129172678Y-62779780D01*
X129216265Y-62735383D01*
X129256574Y-62690732D01*
X129287199Y-62652396D01*
X129301739Y-62626942D01*
X129302151Y-62624326D01*
X129292118Y-62604499D01*
X129261688Y-62610254D01*
X129213105Y-62640911D01*
X129191855Y-62657705D01*
X129147201Y-62702777D01*
X129110817Y-62754247D01*
X129087901Y-62802858D01*
X129083647Y-62839356D01*
X129031163Y-62839356D01*
X129032356Y-62830628D01*
X129040392Y-62784368D01*
X129038044Y-62763601D01*
X129023240Y-62760159D01*
X129014842Y-62761514D01*
X128985925Y-62782805D01*
X128960031Y-62830146D01*
X128957511Y-62836952D01*
X128943570Y-62897455D01*
X128934970Y-62977994D01*
X128931800Y-63067490D01*
X128807745Y-63067490D01*
X128802490Y-63013649D01*
X128822494Y-62863642D01*
X128866364Y-62732688D01*
X128902584Y-62642636D01*
X128931242Y-62562009D01*
X128947480Y-62507295D01*
X129094700Y-62507295D01*
X129103369Y-62515964D01*
X129112038Y-62507295D01*
X129109148Y-62504405D01*
X129169831Y-62504405D01*
X129172211Y-62514713D01*
X129181390Y-62515964D01*
X129195661Y-62509620D01*
X129192948Y-62504405D01*
X129172372Y-62502330D01*
X129169831Y-62504405D01*
X129109148Y-62504405D01*
X129103369Y-62498626D01*
X129094700Y-62507295D01*
X128947480Y-62507295D01*
X128950795Y-62496125D01*
X128952556Y-62487067D01*
X129221845Y-62487067D01*
X129224225Y-62497375D01*
X129233403Y-62498626D01*
X129247675Y-62492282D01*
X129244962Y-62487067D01*
X129224386Y-62484992D01*
X129221845Y-62487067D01*
X128952556Y-62487067D01*
X128959703Y-62450300D01*
X128959258Y-62447526D01*
X129128840Y-62447526D01*
X129137268Y-62438964D01*
X129157910Y-62407913D01*
X129164052Y-62391285D01*
X129177725Y-62378115D01*
X129184857Y-62377261D01*
X129196920Y-62382378D01*
X129184857Y-62398066D01*
X129165983Y-62429670D01*
X129169903Y-62455444D01*
X129190059Y-62463950D01*
X129213045Y-62450072D01*
X129213061Y-62450007D01*
X129302755Y-62450007D01*
X129311097Y-62465080D01*
X129331020Y-62455923D01*
X129354869Y-62427154D01*
X129362351Y-62414038D01*
X129388710Y-62375683D01*
X129415876Y-62353490D01*
X129415909Y-62353478D01*
X129435243Y-62337688D01*
X129434775Y-62328461D01*
X129435845Y-62304621D01*
X129450587Y-62266528D01*
X129451704Y-62264345D01*
X129477513Y-62214597D01*
X129439524Y-62248250D01*
X129410867Y-62279419D01*
X129376154Y-62324874D01*
X129342117Y-62374686D01*
X129315486Y-62418926D01*
X129302994Y-62447663D01*
X129302755Y-62450007D01*
X129213061Y-62450007D01*
X129216066Y-62437943D01*
X129228920Y-62414935D01*
X129240078Y-62411937D01*
X129268911Y-62398765D01*
X129293141Y-62368229D01*
X129304957Y-62333798D01*
X129298725Y-62310814D01*
X129291993Y-62292183D01*
X129312859Y-62279012D01*
X129360737Y-62251787D01*
X129393020Y-62216687D01*
X129397963Y-62197735D01*
X129649513Y-62197735D01*
X129662918Y-62202891D01*
X129695137Y-62196067D01*
X129734178Y-62181201D01*
X129768047Y-62162228D01*
X129775254Y-62156462D01*
X129793526Y-62142289D01*
X129800577Y-62148091D01*
X129798791Y-62179635D01*
X129795509Y-62205492D01*
X129792571Y-62284576D01*
X129806801Y-62364528D01*
X129840473Y-62453055D01*
X129895860Y-62557860D01*
X129903139Y-62570309D01*
X129987601Y-62713702D01*
X129992982Y-62649509D01*
X130004159Y-62603958D01*
X130023521Y-62585306D01*
X130044473Y-62595732D01*
X130058324Y-62627949D01*
X130076030Y-62669152D01*
X130093330Y-62690755D01*
X130108372Y-62697827D01*
X130115637Y-62682360D01*
X130117629Y-62638539D01*
X130117636Y-62634251D01*
X130120696Y-62583753D01*
X130128383Y-62547933D01*
X130132108Y-62541104D01*
X130145923Y-62516311D01*
X130165492Y-62470827D01*
X130178006Y-62437943D01*
X130198676Y-62388035D01*
X130231325Y-62317304D01*
X130271368Y-62235393D01*
X130311749Y-62156639D01*
X130355178Y-62072141D01*
X130383147Y-62012184D01*
X130397658Y-61971346D01*
X130400708Y-61944210D01*
X130395999Y-61928264D01*
X130350851Y-61868729D01*
X130295916Y-61841749D01*
X130273768Y-61839786D01*
X130226861Y-61828456D01*
X130177896Y-61800540D01*
X130172811Y-61796442D01*
X130122616Y-61765332D01*
X130075962Y-61755726D01*
X130205672Y-61755726D01*
X130225719Y-61784894D01*
X130225795Y-61784970D01*
X130257304Y-61800461D01*
X130291831Y-61798389D01*
X130314556Y-61781116D01*
X130317021Y-61770435D01*
X130300897Y-61748969D01*
X130260673Y-61738995D01*
X130217372Y-61740363D01*
X130205672Y-61755726D01*
X130075962Y-61755726D01*
X130061265Y-61752700D01*
X130037112Y-61751683D01*
X129952926Y-61750268D01*
X130013146Y-61724046D01*
X130061492Y-61709359D01*
X130129466Y-61696415D01*
X130199529Y-61688282D01*
X130260630Y-61681525D01*
X130305442Y-61672499D01*
X130325374Y-61663009D01*
X130325690Y-61661782D01*
X130332699Y-61651546D01*
X130350567Y-61666306D01*
X130374555Y-61700085D01*
X130399926Y-61746908D01*
X130408844Y-61766646D01*
X130430889Y-61821879D01*
X130444096Y-61869496D01*
X130447299Y-61915522D01*
X130439334Y-61965983D01*
X130419033Y-62026905D01*
X130385231Y-62104313D01*
X130336763Y-62204233D01*
X130316207Y-62245463D01*
X130266867Y-62344522D01*
X130230972Y-62418940D01*
X130206383Y-62475053D01*
X130190961Y-62519196D01*
X130182570Y-62557706D01*
X130179071Y-62596919D01*
X130178325Y-62643171D01*
X130178318Y-62654097D01*
X130180005Y-62727286D01*
X130186932Y-62778132D01*
X130201901Y-62818880D01*
X130224833Y-62857450D01*
X130291316Y-62928420D01*
X130362606Y-62973287D01*
X130428930Y-63003483D01*
X130478457Y-63015727D01*
X130523772Y-63010485D01*
X130577458Y-62988221D01*
X130590434Y-62981702D01*
X130674980Y-62932298D01*
X130740146Y-62881486D01*
X130781253Y-62833525D01*
X130793813Y-62796588D01*
X130780036Y-62749634D01*
X130743789Y-62694121D01*
X130692694Y-62638712D01*
X130634377Y-62592074D01*
X130594112Y-62569624D01*
X130520161Y-62522286D01*
X130467592Y-62459078D01*
X130438890Y-62386982D01*
X130436538Y-62312981D01*
X130463019Y-62244058D01*
X130473266Y-62229889D01*
X130492677Y-62206396D01*
X130493130Y-62210949D01*
X130482688Y-62233084D01*
X130468831Y-62282686D01*
X130465364Y-62341621D01*
X130472576Y-62392795D01*
X130479696Y-62409237D01*
X130495370Y-62422178D01*
X130522036Y-62417069D01*
X130550636Y-62403499D01*
X130591741Y-62386950D01*
X130635327Y-62382786D01*
X130695972Y-62389841D01*
X130704205Y-62391234D01*
X130815320Y-62399312D01*
X130919182Y-62391721D01*
X130986266Y-62384052D01*
X131031139Y-62384480D01*
X131065534Y-62394025D01*
X131089398Y-62406523D01*
X131126228Y-62425597D01*
X131146339Y-62425468D01*
X131158376Y-62411773D01*
X131173674Y-62359392D01*
X131168796Y-62291691D01*
X131144734Y-62220820D01*
X131142440Y-62216217D01*
X131124953Y-62176855D01*
X131119846Y-62154106D01*
X131121909Y-62151868D01*
X131140394Y-62166640D01*
X131163635Y-62203624D01*
X131186403Y-62251829D01*
X131203469Y-62300262D01*
X131209637Y-62336277D01*
X131193582Y-62410548D01*
X131151026Y-62482631D01*
X131089142Y-62542067D01*
X131053810Y-62563468D01*
X130978952Y-62610140D01*
X130917257Y-62666417D01*
X130872888Y-62726334D01*
X130850012Y-62783927D01*
X130852793Y-62833230D01*
X130858093Y-62843733D01*
X130880342Y-62866458D01*
X130923119Y-62901030D01*
X130977788Y-62940538D01*
X130986345Y-62946371D01*
X131047208Y-62985526D01*
X131090914Y-63007048D01*
X131127568Y-63014731D01*
X131163483Y-63012872D01*
X131237489Y-62989963D01*
X132453451Y-62989963D01*
X132458104Y-63013389D01*
X132464216Y-63027296D01*
X132484485Y-63061050D01*
X132499140Y-63069224D01*
X132502833Y-63049929D01*
X132501387Y-63040435D01*
X132495650Y-63007365D01*
X132494252Y-62997090D01*
X132478911Y-62985297D01*
X132468550Y-62984087D01*
X132453451Y-62989963D01*
X131237489Y-62989963D01*
X131247319Y-62986920D01*
X131312265Y-62945190D01*
X132441345Y-62945190D01*
X132455368Y-62959835D01*
X132465266Y-62960970D01*
X132482045Y-62948859D01*
X132480787Y-62937952D01*
X132464356Y-62922687D01*
X132456433Y-62924527D01*
X132441345Y-62945190D01*
X131312265Y-62945190D01*
X131327699Y-62935273D01*
X131392849Y-62865900D01*
X131402838Y-62850885D01*
X131425569Y-62807428D01*
X131438171Y-62760984D01*
X131442658Y-62706091D01*
X132314261Y-62706091D01*
X132320209Y-62715350D01*
X132343688Y-62745415D01*
X132355961Y-62758694D01*
X132372756Y-62780837D01*
X132392606Y-62816111D01*
X132407618Y-62849358D01*
X132410883Y-62864166D01*
X132422156Y-62873263D01*
X132432480Y-62874280D01*
X132445917Y-62868726D01*
X132439919Y-62847088D01*
X132427319Y-62824378D01*
X132393760Y-62778227D01*
X132351049Y-62731944D01*
X132346353Y-62727575D01*
X132319728Y-62705430D01*
X132314261Y-62706091D01*
X131442658Y-62706091D01*
X131443224Y-62699172D01*
X131443722Y-62654667D01*
X131443022Y-62607114D01*
X131439784Y-62566586D01*
X131431980Y-62526787D01*
X131417581Y-62481420D01*
X131394559Y-62424192D01*
X131360886Y-62348806D01*
X131314533Y-62248967D01*
X131309666Y-62238558D01*
X131175871Y-61952483D01*
X131198194Y-61846223D01*
X131218939Y-61769614D01*
X131221055Y-61764451D01*
X131300229Y-61764451D01*
X131305281Y-61787773D01*
X131330030Y-61804058D01*
X131371042Y-61793870D01*
X131384441Y-61787163D01*
X131414140Y-61763291D01*
X131410694Y-61744731D01*
X131375620Y-61735956D01*
X131366986Y-61735759D01*
X131320966Y-61743630D01*
X131300229Y-61764451D01*
X131221055Y-61764451D01*
X131244780Y-61706571D01*
X131272221Y-61664070D01*
X131297011Y-61649070D01*
X131313460Y-61662276D01*
X131313950Y-61666408D01*
X131329512Y-61676441D01*
X131369172Y-61682701D01*
X131397747Y-61683746D01*
X131465234Y-61686990D01*
X131534343Y-61695571D01*
X131597012Y-61707763D01*
X131645180Y-61721840D01*
X131670784Y-61736074D01*
X131672641Y-61742609D01*
X131652979Y-61753700D01*
X131610250Y-61760616D01*
X131580858Y-61761766D01*
X131508999Y-61769183D01*
X131454685Y-61794211D01*
X131445827Y-61800776D01*
X131401243Y-61827304D01*
X131359427Y-61839670D01*
X131356194Y-61839786D01*
X131305296Y-61856010D01*
X131262410Y-61900223D01*
X131243947Y-61936856D01*
X131241054Y-61957587D01*
X131246837Y-61987947D01*
X131263099Y-62032519D01*
X131291641Y-62095884D01*
X131334265Y-62182623D01*
X131362430Y-62238167D01*
X131495997Y-62499803D01*
X131525884Y-62434198D01*
X131545228Y-62383575D01*
X131555665Y-62340440D01*
X131556225Y-62333049D01*
X131563924Y-62295899D01*
X131572859Y-62281036D01*
X131584847Y-62254029D01*
X131593584Y-62208667D01*
X131594532Y-62199185D01*
X131603628Y-62149220D01*
X131617967Y-62132022D01*
X131634796Y-62148238D01*
X131648424Y-62186544D01*
X131660302Y-62289378D01*
X131647844Y-62399488D01*
X131613905Y-62504986D01*
X131561340Y-62593980D01*
X131546425Y-62611396D01*
X131518283Y-62649834D01*
X131505468Y-62683344D01*
X131505388Y-62685902D01*
X131513299Y-62695456D01*
X131537154Y-62678142D01*
X131566239Y-62647249D01*
X131601859Y-62608514D01*
X131623164Y-62592970D01*
X131638121Y-62597243D01*
X131650165Y-62611692D01*
X131664681Y-62627387D01*
X131677964Y-62625012D01*
X131695518Y-62599994D01*
X131712132Y-62568374D01*
X132237842Y-62568374D01*
X132254736Y-62592070D01*
X132284871Y-62616796D01*
X132372385Y-62691271D01*
X132447974Y-62771917D01*
X132502852Y-62849134D01*
X132510659Y-62863497D01*
X132539729Y-62910960D01*
X132562715Y-62930330D01*
X132576712Y-62920213D01*
X132579615Y-62896536D01*
X132566191Y-62836916D01*
X132530081Y-62766680D01*
X132477529Y-62694328D01*
X132414780Y-62628361D01*
X132388005Y-62607857D01*
X132533957Y-62607857D01*
X132537726Y-62625475D01*
X132554863Y-62663070D01*
X132570101Y-62691664D01*
X132627886Y-62828383D01*
X132658240Y-62978213D01*
X132659884Y-63119866D01*
X132655620Y-63188376D01*
X132657381Y-63227113D01*
X132665532Y-63240517D01*
X132669796Y-63240102D01*
X132688888Y-63219996D01*
X132705200Y-63182343D01*
X132717324Y-63109067D01*
X132719622Y-63017891D01*
X132712621Y-62924009D01*
X132696845Y-62842615D01*
X132693024Y-62830191D01*
X132673581Y-62786060D01*
X132644100Y-62734714D01*
X132609979Y-62683698D01*
X132576616Y-62640556D01*
X132549408Y-62612833D01*
X132533957Y-62607857D01*
X132388005Y-62607857D01*
X132348077Y-62577280D01*
X132342767Y-62574097D01*
X132298246Y-62550640D01*
X132562277Y-62550640D01*
X132568621Y-62564911D01*
X132573836Y-62562198D01*
X132575911Y-62541622D01*
X132573836Y-62539081D01*
X132563528Y-62541461D01*
X132562277Y-62550640D01*
X132298246Y-62550640D01*
X132293159Y-62547960D01*
X132262900Y-62540883D01*
X132244713Y-62549880D01*
X132237842Y-62568374D01*
X131712132Y-62568374D01*
X131719775Y-62553827D01*
X131761311Y-62457172D01*
X131790882Y-62358256D01*
X131804237Y-62281903D01*
X132388898Y-62281903D01*
X132397567Y-62290571D01*
X132406236Y-62281903D01*
X132397567Y-62273234D01*
X132388898Y-62281903D01*
X131804237Y-62281903D01*
X131807225Y-62264817D01*
X131808834Y-62195213D01*
X131886100Y-62195213D01*
X131894769Y-62203882D01*
X131903438Y-62195213D01*
X131955451Y-62195213D01*
X131964120Y-62203882D01*
X131972789Y-62195213D01*
X131964120Y-62186544D01*
X131955451Y-62195213D01*
X131903438Y-62195213D01*
X131894769Y-62186544D01*
X131886100Y-62195213D01*
X131808834Y-62195213D01*
X131809080Y-62184592D01*
X131799377Y-62143199D01*
X132735656Y-62143199D01*
X132744325Y-62151868D01*
X132752994Y-62143199D01*
X132744325Y-62134531D01*
X132735656Y-62143199D01*
X131799377Y-62143199D01*
X131795186Y-62125320D01*
X131790898Y-62117447D01*
X131794118Y-62104211D01*
X131825706Y-62103833D01*
X131881931Y-62116053D01*
X131916224Y-62126206D01*
X131942237Y-62131847D01*
X131947180Y-62119586D01*
X131938001Y-62088817D01*
X131927066Y-62048456D01*
X131913273Y-61985771D01*
X131906863Y-61952483D01*
X132631629Y-61952483D01*
X132640298Y-61961152D01*
X132648967Y-61952483D01*
X132640298Y-61943814D01*
X132631629Y-61952483D01*
X131906863Y-61952483D01*
X131899199Y-61912686D01*
X131895972Y-61894380D01*
X131882789Y-61831118D01*
X132492926Y-61831118D01*
X132501595Y-61839786D01*
X132510264Y-61831118D01*
X132501595Y-61822449D01*
X132492926Y-61831118D01*
X131882789Y-61831118D01*
X131881277Y-61823860D01*
X131873714Y-61797284D01*
X132413445Y-61797284D01*
X132415028Y-61805309D01*
X132433572Y-61819682D01*
X132453445Y-61822094D01*
X132458250Y-61815635D01*
X132444650Y-61804499D01*
X132431343Y-61798495D01*
X132413445Y-61797284D01*
X131873714Y-61797284D01*
X131868540Y-61779104D01*
X132354223Y-61779104D01*
X132362892Y-61787773D01*
X132371560Y-61779104D01*
X132362892Y-61770435D01*
X132354223Y-61779104D01*
X131868540Y-61779104D01*
X131864284Y-61764151D01*
X131848051Y-61725511D01*
X131843854Y-61719636D01*
X131820075Y-61686784D01*
X131825527Y-61671178D01*
X131861370Y-61671242D01*
X131877431Y-61673933D01*
X131921866Y-61679539D01*
X131935298Y-61671382D01*
X131919488Y-61646060D01*
X131901898Y-61626672D01*
X131876540Y-61592485D01*
X131843362Y-61537950D01*
X131809084Y-61474201D01*
X131805494Y-61467022D01*
X131756061Y-61379144D01*
X131703127Y-61305129D01*
X131651804Y-61251261D01*
X131607775Y-61224000D01*
X131578755Y-61225826D01*
X131527770Y-61238917D01*
X131464618Y-61260634D01*
X131448472Y-61266943D01*
X131355024Y-61301630D01*
X131264436Y-61328550D01*
X131165857Y-61350310D01*
X131048439Y-61369516D01*
X130985457Y-61378165D01*
X130837158Y-61397670D01*
X130826758Y-61475691D01*
X130820364Y-61512212D01*
X130815306Y-61520828D01*
X130813518Y-61510367D01*
X130808998Y-61460419D01*
X130799029Y-61427131D01*
X130777248Y-61406001D01*
X130737290Y-61392530D01*
X130672791Y-61382218D01*
X130623709Y-61376161D01*
X130525773Y-61361022D01*
X130417306Y-61339069D01*
X130318574Y-61314502D01*
X130299683Y-61309016D01*
X130226375Y-61288351D01*
X130161604Y-61272580D01*
X130115293Y-61264016D01*
X130102789Y-61263136D01*
X130058757Y-61279411D01*
X129999813Y-61325846D01*
X129926748Y-61401686D01*
X129840356Y-61506175D01*
X129820325Y-61532039D01*
X129770675Y-61600574D01*
X129745408Y-61645281D01*
X129744443Y-61666907D01*
X129767698Y-61666197D01*
X129807606Y-61647971D01*
X129828381Y-61637978D01*
X129833119Y-61643028D01*
X129821989Y-61669342D01*
X129808907Y-61695650D01*
X129788182Y-61746196D01*
X129765368Y-61815874D01*
X129745313Y-61889841D01*
X129744845Y-61891800D01*
X129724715Y-61969191D01*
X129701890Y-62046129D01*
X129681722Y-62104831D01*
X129663367Y-62153907D01*
X129651703Y-62188509D01*
X129649513Y-62197735D01*
X129397963Y-62197735D01*
X129401866Y-62182773D01*
X129400503Y-62177875D01*
X129441458Y-62177875D01*
X129450127Y-62186544D01*
X129458796Y-62177875D01*
X129450127Y-62169206D01*
X129441458Y-62177875D01*
X129400503Y-62177875D01*
X129400478Y-62177785D01*
X129380668Y-62163046D01*
X129346324Y-62172578D01*
X129302462Y-62202010D01*
X129254098Y-62246973D01*
X129206249Y-62303098D01*
X129163931Y-62366016D01*
X129146043Y-62399415D01*
X129129593Y-62436674D01*
X129128840Y-62447526D01*
X128959258Y-62447526D01*
X128956425Y-62429852D01*
X128954275Y-62429275D01*
X128928724Y-62442289D01*
X128891871Y-62475979D01*
X128851860Y-62522309D01*
X128831207Y-62550640D01*
X128817615Y-62569112D01*
X128808974Y-62572896D01*
X128804106Y-62557265D01*
X128801834Y-62517490D01*
X128800983Y-62448842D01*
X128800866Y-62428718D01*
X128803891Y-62328242D01*
X128806856Y-62298749D01*
X128857146Y-62298749D01*
X128859574Y-62339099D01*
X128862197Y-62345106D01*
X128877384Y-62351857D01*
X128892975Y-62325459D01*
X128908193Y-62267418D01*
X128911670Y-62249138D01*
X128924844Y-62201904D01*
X128947017Y-62145769D01*
X128948242Y-62143199D01*
X129406782Y-62143199D01*
X129415451Y-62151868D01*
X129424120Y-62143199D01*
X129415451Y-62134531D01*
X129406782Y-62143199D01*
X128948242Y-62143199D01*
X128956503Y-62125862D01*
X129441458Y-62125862D01*
X129450127Y-62134531D01*
X129458796Y-62125862D01*
X129450127Y-62117193D01*
X129441458Y-62125862D01*
X128956503Y-62125862D01*
X128964764Y-62108524D01*
X129493472Y-62108524D01*
X129502141Y-62117193D01*
X129510810Y-62108524D01*
X129502141Y-62099855D01*
X129493472Y-62108524D01*
X128964764Y-62108524D01*
X128973025Y-62091186D01*
X129545485Y-62091186D01*
X129554154Y-62099855D01*
X129562823Y-62091186D01*
X129554154Y-62082517D01*
X129545485Y-62091186D01*
X128973025Y-62091186D01*
X128973584Y-62090012D01*
X128999941Y-62043913D01*
X129021483Y-62016751D01*
X129028755Y-62013165D01*
X129041057Y-61999039D01*
X129042687Y-61986614D01*
X129056862Y-61958635D01*
X129071037Y-61949593D01*
X129256521Y-61949593D01*
X129258901Y-61959900D01*
X129268079Y-61961152D01*
X129282350Y-61954808D01*
X129279638Y-61949593D01*
X129259062Y-61947518D01*
X129256521Y-61949593D01*
X129071037Y-61949593D01*
X129072646Y-61948567D01*
X129107097Y-61927744D01*
X129137663Y-61901333D01*
X129171317Y-61875135D01*
X129197283Y-61865694D01*
X129223583Y-61854251D01*
X129224577Y-61848455D01*
X129337431Y-61848455D01*
X129346100Y-61857124D01*
X129354769Y-61848455D01*
X129372107Y-61848455D01*
X129380775Y-61857124D01*
X129389444Y-61848455D01*
X129380775Y-61839786D01*
X129372107Y-61848455D01*
X129354769Y-61848455D01*
X129346100Y-61839786D01*
X129337431Y-61848455D01*
X129224577Y-61848455D01*
X129227647Y-61830551D01*
X129207881Y-61811566D01*
X129178112Y-61815385D01*
X129131546Y-61837315D01*
X129076648Y-61871711D01*
X129021881Y-61912931D01*
X128975711Y-61955329D01*
X128954605Y-61980444D01*
X128928385Y-62028533D01*
X128903164Y-62093742D01*
X128881306Y-62166737D01*
X128865179Y-62238184D01*
X128857146Y-62298749D01*
X128806856Y-62298749D01*
X128813177Y-62235887D01*
X128826414Y-62168650D01*
X128851510Y-62071976D01*
X128864288Y-62004555D01*
X128865022Y-61963332D01*
X128853988Y-61945252D01*
X128846638Y-61943814D01*
X128814950Y-61956752D01*
X128763828Y-61994026D01*
X128696029Y-62053323D01*
X128614307Y-62132329D01*
X128577769Y-62169517D01*
X128485616Y-62264565D01*
X128489795Y-62125862D01*
X128535960Y-62125862D01*
X128646364Y-62020146D01*
X128703625Y-61968040D01*
X128758618Y-61922625D01*
X128801732Y-61891710D01*
X128810929Y-61886423D01*
X128855027Y-61867698D01*
X128919065Y-61845290D01*
X128989357Y-61823980D01*
X128990917Y-61823546D01*
X129059450Y-61802282D01*
X129066050Y-61799805D01*
X129236409Y-61799805D01*
X129239992Y-61814610D01*
X129260157Y-61838088D01*
X129289196Y-61828229D01*
X129297933Y-61820336D01*
X129301732Y-61810890D01*
X129412562Y-61810890D01*
X129414942Y-61821197D01*
X129424120Y-61822449D01*
X129438391Y-61816105D01*
X129435679Y-61810890D01*
X129415103Y-61808815D01*
X129412562Y-61810890D01*
X129301732Y-61810890D01*
X129309857Y-61790684D01*
X129298951Y-61762933D01*
X129275916Y-61753097D01*
X129245590Y-61766899D01*
X129236409Y-61799805D01*
X129066050Y-61799805D01*
X129120288Y-61779451D01*
X129160731Y-61759841D01*
X129161905Y-61759087D01*
X129207066Y-61729496D01*
X129150680Y-61706488D01*
X129059514Y-61684362D01*
X128955842Y-61683698D01*
X128903984Y-61691736D01*
X128865184Y-61697458D01*
X128857190Y-61691011D01*
X128860639Y-61686566D01*
X128900216Y-61665155D01*
X128968184Y-61650625D01*
X129058799Y-61643753D01*
X129165944Y-61645296D01*
X129315207Y-61653162D01*
X129360995Y-61593131D01*
X129394373Y-61542819D01*
X129405913Y-61509718D01*
X129395072Y-61497058D01*
X129376441Y-61501057D01*
X129281765Y-61523596D01*
X129177160Y-61519278D01*
X129168954Y-61517964D01*
X129086031Y-61504116D01*
X129216066Y-61490246D01*
X129284098Y-61481859D01*
X129329406Y-61470942D01*
X129363830Y-61452193D01*
X129399213Y-61420310D01*
X129419786Y-61399022D01*
X129458675Y-61354640D01*
X129485138Y-61317619D01*
X129492848Y-61298987D01*
X129483169Y-61296190D01*
X129459667Y-61316421D01*
X129449265Y-61328319D01*
X129419827Y-61360141D01*
X129401772Y-61366497D01*
X129389471Y-61354326D01*
X129379393Y-61322189D01*
X129373235Y-61270747D01*
X129372662Y-61253144D01*
X129638790Y-61253144D01*
X129639523Y-61288547D01*
X129652097Y-61331918D01*
X129676618Y-61390968D01*
X129710052Y-61465212D01*
X129733828Y-61510805D01*
X129751127Y-61531308D01*
X129765132Y-61530280D01*
X129779023Y-61511281D01*
X129780958Y-61507730D01*
X129793226Y-61470335D01*
X129780055Y-61436541D01*
X129777861Y-61433347D01*
X129762342Y-61394094D01*
X129753998Y-61339700D01*
X129753540Y-61324791D01*
X129756138Y-61277155D01*
X129768024Y-61252809D01*
X129795334Y-61240513D01*
X129800245Y-61239237D01*
X129862005Y-61241231D01*
X129897965Y-61256794D01*
X129934430Y-61275217D01*
X129957367Y-61274888D01*
X129981295Y-61256830D01*
X130005905Y-61230671D01*
X130013608Y-61216599D01*
X129999222Y-61199376D01*
X129962489Y-61173959D01*
X129913044Y-61145548D01*
X129860526Y-61119343D01*
X129814570Y-61100545D01*
X129786896Y-61094257D01*
X129724310Y-61110348D01*
X129675250Y-61155856D01*
X129647986Y-61213882D01*
X129638790Y-61253144D01*
X129372662Y-61253144D01*
X129372372Y-61244251D01*
X129372535Y-61241629D01*
X129406782Y-61241629D01*
X129415451Y-61250298D01*
X129424120Y-61241629D01*
X129415451Y-61232961D01*
X129406782Y-61241629D01*
X129372535Y-61241629D01*
X129375909Y-61187245D01*
X129391210Y-61148271D01*
X129424564Y-61111180D01*
X129453274Y-61078980D01*
X129463081Y-61056301D01*
X129460638Y-61052051D01*
X129434566Y-61055319D01*
X129400004Y-61091586D01*
X129357380Y-61160344D01*
X129336601Y-61199929D01*
X129286160Y-61282603D01*
X129232811Y-61333624D01*
X129172823Y-61356004D01*
X129141437Y-61357491D01*
X129092379Y-61361163D01*
X129028885Y-61372813D01*
X128993817Y-61381716D01*
X128943511Y-61399588D01*
X128897321Y-61425692D01*
X128846707Y-61465972D01*
X128783128Y-61526370D01*
X128776605Y-61532869D01*
X128679592Y-61639834D01*
X128611138Y-61740673D01*
X128567707Y-61842381D01*
X128545759Y-61951949D01*
X128542382Y-61995731D01*
X128535960Y-62125862D01*
X128489795Y-62125862D01*
X128491948Y-62054383D01*
X128495317Y-61962991D01*
X128500189Y-61896848D01*
X128508389Y-61846526D01*
X128521745Y-61802600D01*
X128542085Y-61755643D01*
X128555040Y-61728902D01*
X128638267Y-61592556D01*
X128743386Y-61472697D01*
X128864314Y-61374983D01*
X128994966Y-61305069D01*
X129021773Y-61294905D01*
X129110823Y-61254072D01*
X129191233Y-61200035D01*
X129253054Y-61140171D01*
X129276125Y-61106335D01*
X129292138Y-61074138D01*
X129299533Y-61046231D01*
X129298393Y-61012269D01*
X129288805Y-60961909D01*
X129277708Y-60913891D01*
X129261876Y-60839091D01*
X129258561Y-60808487D01*
X129372107Y-60808487D01*
X129381715Y-60899894D01*
X129412053Y-60966523D01*
X129465390Y-61010170D01*
X129543995Y-61032636D01*
X129650137Y-61035719D01*
X129658182Y-61035283D01*
X129727413Y-61030109D01*
X129785486Y-61023726D01*
X129821779Y-61017351D01*
X129825656Y-61016120D01*
X129844281Y-61001230D01*
X129844111Y-60971176D01*
X129839235Y-60952087D01*
X129837682Y-60936151D01*
X129883932Y-60936151D01*
X129893422Y-60977820D01*
X129928505Y-61043012D01*
X129995842Y-61106132D01*
X130093016Y-61165697D01*
X130217610Y-61220227D01*
X130367206Y-61268239D01*
X130367327Y-61268272D01*
X130554484Y-61307794D01*
X130747063Y-61323931D01*
X130953071Y-61317047D01*
X131092211Y-61301216D01*
X131207006Y-61278307D01*
X131332850Y-61242072D01*
X131456406Y-61197072D01*
X131464614Y-61193330D01*
X131712721Y-61193330D01*
X131722789Y-61210988D01*
X131747553Y-61243268D01*
X131752877Y-61249671D01*
X131780782Y-61280315D01*
X131800167Y-61286822D01*
X131824558Y-61271816D01*
X131832818Y-61265177D01*
X131887629Y-61235841D01*
X131936430Y-61238866D01*
X131975055Y-61273720D01*
X131981013Y-61284113D01*
X132000608Y-61328306D01*
X132004377Y-61364469D01*
X131990717Y-61404467D01*
X131958027Y-61460167D01*
X131957031Y-61461739D01*
X131927576Y-61514053D01*
X131919475Y-61546371D01*
X131925822Y-61560492D01*
X131942755Y-61574485D01*
X131957554Y-61573962D01*
X131975390Y-61554346D01*
X132001435Y-61511059D01*
X132020468Y-61476712D01*
X132063843Y-61379747D01*
X132077882Y-61298457D01*
X132062636Y-61230116D01*
X132026136Y-61179613D01*
X131974290Y-61140996D01*
X131917096Y-61128958D01*
X131913791Y-61128933D01*
X131870684Y-61133811D01*
X131818208Y-61146136D01*
X131767179Y-61162444D01*
X131728413Y-61179270D01*
X131712725Y-61193151D01*
X131712721Y-61193330D01*
X131464614Y-61193330D01*
X131564333Y-61147867D01*
X131601990Y-61126927D01*
X131655671Y-61086521D01*
X132129367Y-61086521D01*
X132173191Y-61133785D01*
X132200737Y-61170181D01*
X132212300Y-61199133D01*
X132212039Y-61202723D01*
X132218169Y-61229774D01*
X132239611Y-61269646D01*
X132246615Y-61279947D01*
X132280122Y-61336294D01*
X132307567Y-61397380D01*
X132308798Y-61400856D01*
X132330215Y-61445078D01*
X132362482Y-61472294D01*
X132414000Y-61487162D01*
X132475588Y-61493352D01*
X132536270Y-61497131D01*
X132484257Y-61509088D01*
X132428309Y-61513521D01*
X132382765Y-61507731D01*
X132350793Y-61500812D01*
X132339182Y-61509141D01*
X132342034Y-61540730D01*
X132345328Y-61558608D01*
X132355587Y-61604601D01*
X132365357Y-61635276D01*
X132366805Y-61638064D01*
X132387435Y-61644337D01*
X132433390Y-61647002D01*
X132495463Y-61645612D01*
X132507479Y-61644907D01*
X132600549Y-61643437D01*
X132682175Y-61650609D01*
X132744270Y-61665299D01*
X132774924Y-61682147D01*
X132766606Y-61687596D01*
X132731684Y-61689254D01*
X132685738Y-61687254D01*
X132615040Y-61686899D01*
X132547729Y-61694264D01*
X132517526Y-61701548D01*
X132451762Y-61723252D01*
X132490308Y-61754464D01*
X132528398Y-61776650D01*
X132585286Y-61800453D01*
X132627180Y-61814261D01*
X132767199Y-61865823D01*
X132887684Y-61935906D01*
X132990304Y-62020944D01*
X133038089Y-62065330D01*
X133075439Y-62098804D01*
X133095904Y-62115621D01*
X133097697Y-62116560D01*
X133099851Y-62101005D01*
X133099501Y-62059301D01*
X133096757Y-61999876D01*
X133096053Y-61988498D01*
X133076455Y-61863214D01*
X133032449Y-61748348D01*
X132960625Y-61636605D01*
X132896084Y-61560760D01*
X132800564Y-61468515D01*
X132711318Y-61406444D01*
X132623673Y-61371821D01*
X132555988Y-61362216D01*
X132500720Y-61359616D01*
X132458661Y-61357273D01*
X132445922Y-61356340D01*
X132410817Y-61337306D01*
X132369915Y-61288961D01*
X132326428Y-61215475D01*
X132307461Y-61176595D01*
X132271302Y-61106839D01*
X132239307Y-61067232D01*
X132207108Y-61054314D01*
X132170337Y-61064623D01*
X132167824Y-61065940D01*
X132129367Y-61086521D01*
X131655671Y-61086521D01*
X131681969Y-61066726D01*
X131729640Y-60999937D01*
X131747207Y-60923324D01*
X131747397Y-60913566D01*
X131747359Y-60913123D01*
X131790045Y-60913123D01*
X131790808Y-60968941D01*
X131797419Y-60999169D01*
X131812862Y-61012776D01*
X131824292Y-61016037D01*
X131872560Y-61026199D01*
X131894769Y-61030889D01*
X131964125Y-61039279D01*
X132041098Y-61039179D01*
X132111930Y-61031349D01*
X132162864Y-61016555D01*
X132164073Y-61015944D01*
X132221469Y-60967437D01*
X132256560Y-60894675D01*
X132267533Y-60808487D01*
X132251020Y-60699383D01*
X132203733Y-60601160D01*
X132129053Y-60518705D01*
X132030363Y-60456907D01*
X132021723Y-60453084D01*
X131970114Y-60431820D01*
X131940380Y-60424195D01*
X131922797Y-60429559D01*
X131908900Y-60445539D01*
X131890592Y-60475896D01*
X131893123Y-60497368D01*
X131920768Y-60517568D01*
X131959786Y-60536117D01*
X132033010Y-60577486D01*
X132083238Y-60630251D01*
X132119124Y-60698999D01*
X132134733Y-60742058D01*
X132134214Y-60769616D01*
X132116763Y-60797281D01*
X132113858Y-60800897D01*
X132082300Y-60839870D01*
X131958093Y-60807655D01*
X131882856Y-60790627D01*
X131834348Y-60789005D01*
X131806653Y-60806499D01*
X131793854Y-60846825D01*
X131790045Y-60913123D01*
X131747359Y-60913123D01*
X131745834Y-60895292D01*
X131737799Y-60888582D01*
X131718273Y-60895538D01*
X131682237Y-60918262D01*
X131624672Y-60958854D01*
X131604359Y-60973459D01*
X131417377Y-61088193D01*
X131222437Y-61169409D01*
X131021031Y-61216870D01*
X130814649Y-61230343D01*
X130604783Y-61209594D01*
X130412380Y-61160887D01*
X130217992Y-61082188D01*
X130043569Y-60978599D01*
X130004196Y-60949875D01*
X129942997Y-60907471D01*
X129903774Y-60890741D01*
X129884696Y-60900147D01*
X129883932Y-60936151D01*
X129837682Y-60936151D01*
X129833583Y-60894102D01*
X129842008Y-60865542D01*
X129850178Y-60827735D01*
X129839310Y-60807074D01*
X129810657Y-60787725D01*
X129766075Y-60784372D01*
X129699575Y-60797064D01*
X129659285Y-60808513D01*
X129587448Y-60826027D01*
X129541936Y-60824806D01*
X129518678Y-60802794D01*
X129513599Y-60757936D01*
X129515421Y-60735932D01*
X129538255Y-60656128D01*
X129588613Y-60592355D01*
X129669364Y-60541130D01*
X129679854Y-60536279D01*
X129728755Y-60512074D01*
X129749352Y-60492200D01*
X129745819Y-60468835D01*
X129729321Y-60443600D01*
X129714025Y-60425689D01*
X129696824Y-60420481D01*
X129668077Y-60428735D01*
X129618144Y-60451207D01*
X129615255Y-60452560D01*
X129512925Y-60516922D01*
X129436519Y-60600245D01*
X129388693Y-60698639D01*
X129372107Y-60808213D01*
X129372107Y-60808487D01*
X129258561Y-60808487D01*
X129258531Y-60808213D01*
X129255954Y-60784420D01*
X129259308Y-60736971D01*
X129267181Y-60699754D01*
X129311712Y-60580631D01*
X129379863Y-60475330D01*
X129432126Y-60420988D01*
X129468451Y-60386136D01*
X129490454Y-60359317D01*
X129493472Y-60351988D01*
X129479627Y-60334935D01*
X129445160Y-60311152D01*
X129432789Y-60304171D01*
X129372107Y-60271492D01*
X129372107Y-60006697D01*
X129372107Y-59908647D01*
X129456511Y-59908647D01*
X129457166Y-59975773D01*
X129457661Y-60001971D01*
X129462636Y-60101446D01*
X129474382Y-60171564D01*
X129494813Y-60217304D01*
X129525848Y-60243644D01*
X129554374Y-60253095D01*
X129607977Y-60264213D01*
X129640655Y-60270991D01*
X129676911Y-60293284D01*
X129716852Y-60341310D01*
X129755620Y-60407195D01*
X129788357Y-60483063D01*
X129804902Y-60537174D01*
X129821354Y-60602425D01*
X129837745Y-60666422D01*
X129841715Y-60681701D01*
X129879850Y-60764730D01*
X129948022Y-60846839D01*
X130041631Y-60925485D01*
X130156076Y-60998128D01*
X130286757Y-61062223D01*
X130429072Y-61115229D01*
X130578422Y-61154602D01*
X130730205Y-61177801D01*
X130741154Y-61178784D01*
X130739459Y-61171707D01*
X130713062Y-61150965D01*
X130667158Y-61120458D01*
X130645796Y-61107187D01*
X130554326Y-61042123D01*
X130497109Y-60979444D01*
X130482566Y-60941459D01*
X130629103Y-60941459D01*
X130632265Y-60997853D01*
X130646108Y-61035622D01*
X130677170Y-61070568D01*
X130685725Y-61078342D01*
X130755644Y-61119712D01*
X130833397Y-61128152D01*
X130914645Y-61103200D01*
X130915525Y-61102747D01*
X130965053Y-61066927D01*
X130992281Y-61017877D01*
X131001710Y-60946752D01*
X131001868Y-60933026D01*
X130990276Y-60868865D01*
X131053881Y-60868865D01*
X131067924Y-60884247D01*
X131079888Y-60886203D01*
X131102961Y-60876841D01*
X131105895Y-60868865D01*
X131091852Y-60853483D01*
X131079888Y-60851527D01*
X131056815Y-60860889D01*
X131053881Y-60868865D01*
X130990276Y-60868865D01*
X130987714Y-60854682D01*
X130949666Y-60795099D01*
X130894341Y-60756560D01*
X130828356Y-60741351D01*
X130758329Y-60751758D01*
X130690877Y-60790064D01*
X130663779Y-60816279D01*
X130638733Y-60860751D01*
X130629353Y-60925200D01*
X130629103Y-60941459D01*
X130482566Y-60941459D01*
X130473842Y-60918674D01*
X130484071Y-60860196D01*
X130551083Y-60860196D01*
X130559752Y-60868865D01*
X130568421Y-60860196D01*
X130559752Y-60851527D01*
X130551083Y-60860196D01*
X130484071Y-60860196D01*
X130484221Y-60859336D01*
X130485634Y-60856365D01*
X130511459Y-60820959D01*
X130548290Y-60811366D01*
X130558997Y-60811833D01*
X130614052Y-60800611D01*
X130667206Y-60764154D01*
X130709630Y-60732365D01*
X130752321Y-60717088D01*
X130811473Y-60712851D01*
X130819093Y-60712824D01*
X130882584Y-60716634D01*
X130928036Y-60731481D01*
X130969237Y-60760503D01*
X131026967Y-60796157D01*
X131078506Y-60808182D01*
X131129177Y-60821941D01*
X131158820Y-60859107D01*
X131164516Y-60913514D01*
X131151316Y-60961929D01*
X131120965Y-61005321D01*
X131067134Y-61055538D01*
X130998309Y-61105959D01*
X130922974Y-61149965D01*
X130890637Y-61165292D01*
X130880282Y-61173391D01*
X130897804Y-61175276D01*
X130937131Y-61171796D01*
X130992191Y-61163801D01*
X131056912Y-61152141D01*
X131125223Y-61137665D01*
X131175233Y-61125453D01*
X131300977Y-61084273D01*
X131424468Y-61028598D01*
X131539241Y-60962566D01*
X131638830Y-60890317D01*
X131716769Y-60815993D01*
X131764342Y-60748269D01*
X131785938Y-60696303D01*
X131808576Y-60626899D01*
X131824339Y-60567393D01*
X131861427Y-60440688D01*
X131906100Y-60347777D01*
X131958390Y-60288613D01*
X132018332Y-60263147D01*
X132034953Y-60262039D01*
X132085679Y-60251581D01*
X132130063Y-60215508D01*
X132135958Y-60208695D01*
X132157087Y-60180822D01*
X132170311Y-60152346D01*
X132177458Y-60114384D01*
X132180355Y-60058050D01*
X132180844Y-59990594D01*
X132180844Y-59825837D01*
X132133165Y-59835154D01*
X132091475Y-59841574D01*
X132029174Y-59849237D01*
X131964120Y-59856048D01*
X131859496Y-59872077D01*
X131786933Y-59897441D01*
X131744935Y-59932729D01*
X131738225Y-59944981D01*
X131731401Y-59976469D01*
X131725439Y-60031796D01*
X131721440Y-60100125D01*
X131720965Y-60114667D01*
X131711224Y-60227599D01*
X131689960Y-60325760D01*
X131659130Y-60404565D01*
X131620688Y-60459431D01*
X131576588Y-60485774D01*
X131561980Y-60487432D01*
X131503803Y-60474890D01*
X131468314Y-60437021D01*
X131455388Y-60373456D01*
X131464900Y-60283831D01*
X131476164Y-60236032D01*
X131492525Y-60185032D01*
X131540804Y-60185032D01*
X131552943Y-60207085D01*
X131587021Y-60231555D01*
X131630897Y-60255755D01*
X131653505Y-60258632D01*
X131660619Y-60240568D01*
X131660707Y-60236432D01*
X131647363Y-60209099D01*
X131616357Y-60182388D01*
X131581224Y-60165505D01*
X131557442Y-60166209D01*
X131540804Y-60185032D01*
X131492525Y-60185032D01*
X131503938Y-60149455D01*
X131540609Y-60073437D01*
X131593027Y-59995241D01*
X131633258Y-59943979D01*
X131709307Y-59850610D01*
X131623612Y-59692229D01*
X131586690Y-59626611D01*
X131554528Y-59574255D01*
X131531239Y-59541581D01*
X131522221Y-59533848D01*
X131500414Y-59542071D01*
X131457906Y-59563694D01*
X131403653Y-59594143D01*
X131400387Y-59596053D01*
X131312157Y-59657947D01*
X131256308Y-59724015D01*
X131230739Y-59799662D01*
X131233351Y-59890295D01*
X131253455Y-59974385D01*
X131270829Y-60059997D01*
X131277366Y-60157115D01*
X131272934Y-60251145D01*
X131257403Y-60327496D01*
X131256623Y-60329767D01*
X131216704Y-60395279D01*
X131153614Y-60444097D01*
X131114564Y-60459789D01*
X131096172Y-60462345D01*
X131085734Y-60452216D01*
X131080991Y-60422485D01*
X131079687Y-60366239D01*
X131079643Y-60352856D01*
X131076253Y-60277800D01*
X131063567Y-60219387D01*
X131044063Y-60175335D01*
X131089049Y-60175335D01*
X131099211Y-60197549D01*
X131100116Y-60198467D01*
X131123529Y-60205953D01*
X131166842Y-60209862D01*
X131178136Y-60210025D01*
X131225263Y-60205345D01*
X131243831Y-60190000D01*
X131244598Y-60184019D01*
X131234387Y-60166877D01*
X131199669Y-60159069D01*
X131166578Y-60158012D01*
X131111300Y-60162280D01*
X131089049Y-60175335D01*
X131044063Y-60175335D01*
X131037247Y-60159940D01*
X131028182Y-60143122D01*
X130991048Y-60086318D01*
X130984437Y-60078275D01*
X131052184Y-60078275D01*
X131059083Y-60104642D01*
X131065440Y-60111777D01*
X131091680Y-60120692D01*
X131136337Y-60123324D01*
X131185126Y-60120315D01*
X131223763Y-60112309D01*
X131237127Y-60104060D01*
X131236876Y-60080452D01*
X131206476Y-60063419D01*
X131150136Y-60054877D01*
X131127567Y-60054250D01*
X131075975Y-60060586D01*
X131052184Y-60078275D01*
X130984437Y-60078275D01*
X130944454Y-60029633D01*
X130895558Y-59980300D01*
X130851520Y-59945552D01*
X130819820Y-59932619D01*
X130787496Y-59945912D01*
X130743344Y-59980949D01*
X130694534Y-60030465D01*
X130648235Y-60087196D01*
X130612031Y-60143122D01*
X130577885Y-60218409D01*
X130561089Y-60294167D01*
X130557028Y-60348728D01*
X130553437Y-60409766D01*
X130547083Y-60443196D01*
X130535638Y-60456084D01*
X130521534Y-60456399D01*
X130450097Y-60430250D01*
X130396243Y-60381624D01*
X130384894Y-60363206D01*
X130368279Y-60306829D01*
X130361154Y-60227556D01*
X130362133Y-60185015D01*
X130395042Y-60185015D01*
X130403113Y-60202189D01*
X130432385Y-60208000D01*
X130467380Y-60206688D01*
X130513888Y-60198651D01*
X130543106Y-60184958D01*
X130546845Y-60179684D01*
X130539248Y-60165300D01*
X130502140Y-60158696D01*
X130474507Y-60158012D01*
X130423140Y-60161089D01*
X130399179Y-60171875D01*
X130395042Y-60185015D01*
X130362133Y-60185015D01*
X130363267Y-60135767D01*
X130367463Y-60100257D01*
X130395042Y-60100257D01*
X130409724Y-60116261D01*
X130446185Y-60123079D01*
X130493050Y-60121680D01*
X130538940Y-60113028D01*
X130572479Y-60098092D01*
X130582533Y-60084326D01*
X130579236Y-60063155D01*
X130553158Y-60054903D01*
X130530682Y-60054221D01*
X130458242Y-60059982D01*
X130411700Y-60075672D01*
X130395044Y-60099938D01*
X130395042Y-60100257D01*
X130367463Y-60100257D01*
X130374366Y-60041844D01*
X130394200Y-59956171D01*
X130394813Y-59954199D01*
X130416535Y-59863365D01*
X130416103Y-59799902D01*
X130571292Y-59799902D01*
X130577313Y-59890102D01*
X130596303Y-59949588D01*
X130624185Y-60019272D01*
X130711264Y-59949939D01*
X130759643Y-59913906D01*
X130799271Y-59888836D01*
X130819644Y-59880606D01*
X130843226Y-59891364D01*
X130882651Y-59919266D01*
X130919732Y-59949957D01*
X130962847Y-59986640D01*
X130995149Y-60011778D01*
X131007977Y-60019309D01*
X131017836Y-60004227D01*
X131033570Y-59965207D01*
X131047276Y-59924637D01*
X131065401Y-59838572D01*
X131059104Y-59763165D01*
X131026053Y-59691276D01*
X130963917Y-59615766D01*
X130938060Y-59590196D01*
X130889710Y-59546467D01*
X130849251Y-59514225D01*
X130824354Y-59499500D01*
X130822279Y-59499172D01*
X130794219Y-59511371D01*
X130751919Y-59543083D01*
X130703093Y-59586976D01*
X130655452Y-59635723D01*
X130616710Y-59681992D01*
X130596714Y-59713526D01*
X130571292Y-59799902D01*
X130416103Y-59799902D01*
X130416049Y-59791920D01*
X130392026Y-59731566D01*
X130351183Y-59681862D01*
X130311799Y-59648077D01*
X130259611Y-59610360D01*
X130204170Y-59574773D01*
X130155027Y-59547377D01*
X130121733Y-59534234D01*
X130117965Y-59533848D01*
X130105643Y-59547766D01*
X130081067Y-59584463D01*
X130048725Y-59636348D01*
X130013103Y-59695833D01*
X129978690Y-59755330D01*
X129949973Y-59807251D01*
X129931439Y-59844005D01*
X129926919Y-59856916D01*
X129937647Y-59873916D01*
X129965705Y-59908700D01*
X130002969Y-59951428D01*
X130066136Y-60038397D01*
X130121691Y-60145584D01*
X130163039Y-60258546D01*
X130181261Y-60341914D01*
X130179763Y-60411725D01*
X130155427Y-60460959D01*
X130110852Y-60485464D01*
X130090180Y-60487432D01*
X130035472Y-60470984D01*
X129991714Y-60421661D01*
X129958919Y-60339496D01*
X129956208Y-60325209D01*
X130000403Y-60325209D01*
X130005325Y-60335230D01*
X130035237Y-60328713D01*
X130055346Y-60319996D01*
X130094967Y-60295495D01*
X130116396Y-60271332D01*
X130117636Y-60265901D01*
X130111575Y-60253083D01*
X130088829Y-60259338D01*
X130062679Y-60273605D01*
X130019759Y-60303163D01*
X130000403Y-60325209D01*
X129956208Y-60325209D01*
X129938997Y-60234511D01*
X129962883Y-60234511D01*
X129973153Y-60250480D01*
X129986473Y-60260246D01*
X130003464Y-60256645D01*
X130036088Y-60236745D01*
X130040225Y-60234038D01*
X130071108Y-60206346D01*
X130082960Y-60182025D01*
X130079674Y-60163034D01*
X130064612Y-60160831D01*
X130029971Y-60175686D01*
X130012747Y-60184464D01*
X129972082Y-60211090D01*
X129962883Y-60234511D01*
X129938997Y-60234511D01*
X129937101Y-60224521D01*
X129928335Y-60123947D01*
X129923519Y-60042935D01*
X129918345Y-59989071D01*
X129910538Y-59954879D01*
X129897822Y-59932884D01*
X129877921Y-59915610D01*
X129861473Y-59904328D01*
X129834998Y-59888879D01*
X129803651Y-59876786D01*
X129761646Y-59867035D01*
X129703200Y-59858617D01*
X129622526Y-59850518D01*
X129513839Y-59841727D01*
X129495653Y-59840353D01*
X129476608Y-59840134D01*
X129464735Y-59847197D01*
X129458535Y-59867911D01*
X129456511Y-59908647D01*
X129372107Y-59908647D01*
X129372107Y-59741903D01*
X129632175Y-59741903D01*
X129892243Y-59741903D01*
X129892243Y-59677388D01*
X129895721Y-59640716D01*
X129909589Y-59607132D01*
X129939001Y-59568076D01*
X129989108Y-59514990D01*
X129991393Y-59512678D01*
X130040217Y-59465963D01*
X130081840Y-59430868D01*
X130108978Y-59413398D01*
X130112902Y-59412483D01*
X130135405Y-59421647D01*
X130179991Y-59446579D01*
X130240141Y-59483438D01*
X130307296Y-59527024D01*
X130375469Y-59571100D01*
X130433612Y-59606235D01*
X130475525Y-59628849D01*
X130494954Y-59635386D01*
X130513049Y-59620648D01*
X130548280Y-59586428D01*
X130594423Y-59538874D01*
X130617519Y-59514301D01*
X130674001Y-59450217D01*
X130707810Y-59402479D01*
X130722809Y-59365110D01*
X130724461Y-59348724D01*
X130725146Y-59345157D01*
X130758253Y-59345157D01*
X130761334Y-59384647D01*
X130770696Y-59400924D01*
X130803572Y-59412951D01*
X130844900Y-59406094D01*
X130876729Y-59383950D01*
X130879830Y-59379063D01*
X130889609Y-59333142D01*
X130871895Y-59297272D01*
X130833792Y-59279149D01*
X130791370Y-59283224D01*
X130769249Y-59305746D01*
X130758253Y-59345157D01*
X130725146Y-59345157D01*
X130734867Y-59294576D01*
X130768273Y-59264856D01*
X130822888Y-59256442D01*
X130876594Y-59270038D01*
G37*
%TD.AperFunction*%
%TA.AperFunction,EtchedComponent*%
G36*
X130010333Y-62336917D02*
G01*
X130017035Y-62359923D01*
X130034730Y-62418465D01*
X130055718Y-62481535D01*
X130058254Y-62488699D01*
X130074646Y-62538692D01*
X130076639Y-62558345D01*
X130063816Y-62549048D01*
X130046694Y-62527269D01*
X130029282Y-62488936D01*
X130014945Y-62431718D01*
X130009623Y-62394599D01*
X130005077Y-62344230D01*
X130005138Y-62325826D01*
X130010333Y-62336917D01*
G37*
%TD.AperFunction*%
%TA.AperFunction,EtchedComponent*%
G36*
X130500125Y-61447530D02*
G01*
X130533229Y-61474811D01*
X130534259Y-61476652D01*
X130549093Y-61515720D01*
X130542997Y-61530131D01*
X130520708Y-61516353D01*
X130505309Y-61498242D01*
X130479690Y-61466812D01*
X130461788Y-61460531D01*
X130438702Y-61476667D01*
X130431916Y-61482713D01*
X130403668Y-61500483D01*
X130394791Y-61493250D01*
X130410350Y-61467598D01*
X130415847Y-61461821D01*
X130455646Y-61442530D01*
X130500125Y-61447530D01*
G37*
%TD.AperFunction*%
%TA.AperFunction,EtchedComponent*%
G36*
X131189454Y-61440336D02*
G01*
X131211766Y-61457315D01*
X131235044Y-61480891D01*
X131236446Y-61492282D01*
X131235062Y-61492452D01*
X131207288Y-61481994D01*
X131198951Y-61475123D01*
X131168192Y-61464729D01*
X131133682Y-61481965D01*
X131108318Y-61515713D01*
X131094084Y-61542052D01*
X131091005Y-61536470D01*
X131093116Y-61512354D01*
X131110288Y-61470689D01*
X131133746Y-61446875D01*
X131163263Y-61432752D01*
X131189454Y-61440336D01*
G37*
%TD.AperFunction*%
%TA.AperFunction,EtchedComponent*%
G36*
X129268079Y-62343129D02*
G01*
X129254028Y-62358031D01*
X129242072Y-62359923D01*
X129218940Y-62356214D01*
X129216066Y-62353109D01*
X129229623Y-62341929D01*
X129242072Y-62336315D01*
X129264398Y-62335955D01*
X129268079Y-62343129D01*
G37*
%TD.AperFunction*%
%TA.AperFunction,EtchedComponent*%
G36*
X128829193Y-61712283D02*
G01*
X128825963Y-61718421D01*
X128809627Y-61734979D01*
X128806579Y-61735759D01*
X128805396Y-61724560D01*
X128808625Y-61718421D01*
X128824961Y-61701864D01*
X128828010Y-61701083D01*
X128829193Y-61712283D01*
G37*
%TD.AperFunction*%
%TA.AperFunction,EtchedComponent*%
G36*
X132822345Y-61709752D02*
G01*
X132813676Y-61718421D01*
X132805008Y-61709752D01*
X132813676Y-61701083D01*
X132822345Y-61709752D01*
G37*
%TD.AperFunction*%
%TA.AperFunction,EtchedComponent*%
G36*
X130863130Y-60045282D02*
G01*
X130925449Y-60122836D01*
X130973656Y-60217835D01*
X131004758Y-60320317D01*
X131015765Y-60420320D01*
X131003683Y-60507882D01*
X131002843Y-60510484D01*
X130966294Y-60578297D01*
X130911226Y-60629992D01*
X130846897Y-60657964D01*
X130819820Y-60660810D01*
X130752910Y-60644767D01*
X130709611Y-60616898D01*
X130656609Y-60550812D01*
X130628625Y-60466729D01*
X130625117Y-60370082D01*
X130627613Y-60357397D01*
X130741799Y-60357397D01*
X130750468Y-60366066D01*
X130759137Y-60357397D01*
X130750468Y-60348728D01*
X130741799Y-60357397D01*
X130627613Y-60357397D01*
X130645539Y-60266305D01*
X130658113Y-60236032D01*
X130793813Y-60236032D01*
X130802482Y-60244701D01*
X130811151Y-60236032D01*
X130802482Y-60227363D01*
X130793813Y-60236032D01*
X130658113Y-60236032D01*
X130689348Y-60160829D01*
X130755999Y-60059088D01*
X130766822Y-60045811D01*
X130809907Y-59994292D01*
X130863130Y-60045282D01*
G37*
%TD.AperFunction*%
%TA.AperFunction,EtchedComponent*%
G36*
X130852670Y-60807236D02*
G01*
X130910580Y-60844542D01*
X130918391Y-60852073D01*
X130953840Y-60895691D01*
X130962622Y-60932133D01*
X130960639Y-60943097D01*
X130952193Y-60983060D01*
X130950091Y-61002834D01*
X130934981Y-61028524D01*
X130897087Y-61056836D01*
X130846833Y-61080403D01*
X130834797Y-61084325D01*
X130794028Y-61081983D01*
X130744568Y-61050580D01*
X130743774Y-61049913D01*
X130701092Y-60995890D01*
X130693061Y-60962066D01*
X130718699Y-60962066D01*
X130723744Y-60979674D01*
X130756433Y-61023490D01*
X130806511Y-61041629D01*
X130865728Y-61031759D01*
X130881642Y-61024296D01*
X130907603Y-60993030D01*
X130915478Y-60945739D01*
X130905268Y-60895987D01*
X130881667Y-60861250D01*
X130835869Y-60838528D01*
X130788704Y-60843225D01*
X130748141Y-60869364D01*
X130722149Y-60910970D01*
X130718699Y-60962066D01*
X130693061Y-60962066D01*
X130686674Y-60935168D01*
X130700862Y-60876649D01*
X130735469Y-60835448D01*
X130795030Y-60804271D01*
X130852670Y-60807236D01*
G37*
%TD.AperFunction*%
%TD*%
D14*
%TO.P,U1,8,VCC*%
%TO.N,/VCC*%
X150400000Y-63240000D03*
%TO.P,U1,7,DISCH*%
%TO.N,/R1*%
X150400000Y-65780000D03*
%TO.P,U1,6,THRES*%
%TO.N,/C1*%
X150400000Y-68320000D03*
%TO.P,U1,5,CONT*%
%TO.N,/C2*%
X150400000Y-70860000D03*
%TO.P,U1,4,~{RST}*%
%TO.N,/VCC*%
X142780000Y-70860000D03*
%TO.P,U1,3,OUT*%
%TO.N,/B*%
X142780000Y-68320000D03*
%TO.P,U1,2,TRIG*%
%TO.N,/C1*%
X142780000Y-65780000D03*
D15*
%TO.P,U1,1,GND*%
%TO.N,/GND*%
X142780000Y-63240000D03*
%TD*%
D16*
%TO.P,J1,2,Pin_2*%
%TO.N,/GND*%
X149637500Y-80787500D03*
D17*
%TO.P,J1,1,Pin_1*%
%TO.N,/VCC*%
X144557500Y-80787500D03*
%TD*%
D14*
%TO.P,R2,2*%
%TO.N,/C1*%
X138085000Y-62785000D03*
%TO.P,R2,1*%
%TO.N,/R1*%
X138085000Y-67865000D03*
%TD*%
D18*
%TO.P,BZ1,2,-*%
%TO.N,/GND*%
X138085000Y-77050000D03*
D19*
%TO.P,BZ1,1,+*%
%TO.N,/B*%
X130485000Y-77050000D03*
%TD*%
D14*
%TO.P,R1,1*%
%TO.N,/R1*%
X155585000Y-71050000D03*
%TO.P,R1,2*%
%TO.N,/VCC*%
X155585000Y-65970000D03*
%TD*%
%TO.P,C2,1*%
%TO.N,/C2*%
X155585000Y-81550000D03*
%TO.P,C2,2*%
%TO.N,/GND*%
X158085000Y-81550000D03*
%TD*%
%TO.P,C1,1*%
%TO.N,/C1*%
X155585000Y-77500000D03*
%TO.P,C1,2*%
%TO.N,/GND*%
X158085000Y-77500000D03*
%TD*%
D20*
%TO.N,/B*%
X131786000Y-78351000D02*
X138623892Y-78351000D01*
%TO.N,/VCC*%
X142780000Y-70860000D02*
X142780000Y-79010000D01*
X142780000Y-79010000D02*
X144557500Y-80787500D01*
%TO.N,/B*%
X141679000Y-69421000D02*
X142780000Y-68320000D01*
X138623892Y-78351000D02*
X141679000Y-75295892D01*
X141679000Y-75295892D02*
X141679000Y-69421000D01*
%TO.N,/C1*%
X141080000Y-65780000D02*
X142780000Y-65780000D01*
X138085000Y-62785000D02*
X141080000Y-65780000D01*
X154500000Y-77500000D02*
X155585000Y-77500000D01*
X142780000Y-65780000D02*
X154500000Y-77500000D01*
%TO.N,/B*%
X130485000Y-77050000D02*
X131786000Y-78351000D01*
%TO.N,/VCC*%
X152855000Y-63240000D02*
X155585000Y-65970000D01*
X150400000Y-63240000D02*
X152855000Y-63240000D01*
%TO.N,/R1*%
X155585000Y-71050000D02*
X150400000Y-65865000D01*
X150400000Y-65865000D02*
X150400000Y-65780000D01*
%TO.N,/C2*%
X153002050Y-70860000D02*
X150400000Y-70860000D01*
X159186000Y-82006050D02*
X159186000Y-77043950D01*
X158541050Y-82651000D02*
X159186000Y-82006050D01*
X156686000Y-82651000D02*
X158541050Y-82651000D01*
X159186000Y-77043950D02*
X153002050Y-70860000D01*
X155585000Y-81550000D02*
X156686000Y-82651000D01*
%TO.N,/GND*%
X158085000Y-81550000D02*
X158085000Y-77500000D01*
X149976000Y-80449000D02*
X155136000Y-80449000D01*
X149637500Y-80787500D02*
X149976000Y-80449000D01*
X155136000Y-80449000D02*
X158085000Y-77500000D01*
X141224000Y-61684000D02*
X137628950Y-61684000D01*
X136984000Y-75949000D02*
X138085000Y-77050000D01*
X142780000Y-63240000D02*
X141224000Y-61684000D01*
X137628950Y-61684000D02*
X136984000Y-62328950D01*
X136984000Y-62328950D02*
X136984000Y-75949000D01*
%TO.N,/C1*%
X145973840Y-68320000D02*
X150400000Y-68320000D01*
X140438840Y-62785000D02*
X145973840Y-68320000D01*
X138085000Y-62785000D02*
X140438840Y-62785000D01*
%TD*%
%TA.AperFunction,Conductor*%
%TO.N,/GND*%
G36*
X152768992Y-71480185D02*
G01*
X152789634Y-71496819D01*
X157466671Y-76173856D01*
X157500156Y-76235179D01*
X157495172Y-76304871D01*
X157453300Y-76360804D01*
X157435286Y-76372021D01*
X157403648Y-76388141D01*
X157403645Y-76388143D01*
X157359077Y-76420523D01*
X157359077Y-76420524D01*
X158038553Y-77100000D01*
X158032339Y-77100000D01*
X157930606Y-77127259D01*
X157839394Y-77179920D01*
X157764920Y-77254394D01*
X157712259Y-77345606D01*
X157685000Y-77447339D01*
X157685000Y-77453553D01*
X157005524Y-76774077D01*
X157005523Y-76774077D01*
X156973143Y-76818644D01*
X156945765Y-76872378D01*
X156897790Y-76923174D01*
X156829969Y-76939969D01*
X156763834Y-76917431D01*
X156724795Y-76872378D01*
X156697284Y-76818385D01*
X156576971Y-76652786D01*
X156432213Y-76508028D01*
X156266613Y-76387715D01*
X156266612Y-76387714D01*
X156266610Y-76387713D01*
X156209653Y-76358691D01*
X156084223Y-76294781D01*
X155889534Y-76231522D01*
X155714995Y-76203878D01*
X155687352Y-76199500D01*
X155482648Y-76199500D01*
X155458329Y-76203351D01*
X155280465Y-76231522D01*
X155085776Y-76294781D01*
X154903386Y-76387715D01*
X154737786Y-76508028D01*
X154737782Y-76508032D01*
X154635206Y-76610609D01*
X154573883Y-76644094D01*
X154504191Y-76639110D01*
X154459844Y-76610609D01*
X150221416Y-72372181D01*
X150187931Y-72310858D01*
X150192915Y-72241166D01*
X150234787Y-72185233D01*
X150300251Y-72160816D01*
X150309097Y-72160500D01*
X150502351Y-72160500D01*
X150502352Y-72160500D01*
X150704534Y-72128477D01*
X150899219Y-72065220D01*
X151081610Y-71972287D01*
X151184941Y-71897213D01*
X151247213Y-71851971D01*
X151247215Y-71851968D01*
X151247219Y-71851966D01*
X151391966Y-71707219D01*
X151391968Y-71707215D01*
X151391971Y-71707213D01*
X151512284Y-71541614D01*
X151512285Y-71541613D01*
X151512287Y-71541610D01*
X151519117Y-71528204D01*
X151567091Y-71477409D01*
X151629602Y-71460500D01*
X152701953Y-71460500D01*
X152768992Y-71480185D01*
G37*
%TD.AperFunction*%
%TA.AperFunction,Conductor*%
G36*
X130444912Y-58670185D02*
G01*
X130490667Y-58722989D01*
X130500611Y-58792147D01*
X130471586Y-58855703D01*
X130446272Y-58877928D01*
X130439035Y-58882713D01*
X130432273Y-58887185D01*
X130432269Y-58887189D01*
X130404957Y-58911486D01*
X130341785Y-58941337D01*
X130287985Y-58935729D01*
X130287414Y-58937704D01*
X130282494Y-58936279D01*
X130159751Y-58911486D01*
X130141454Y-58907790D01*
X130141453Y-58907790D01*
X129998106Y-58920190D01*
X129994202Y-58921100D01*
X129966186Y-58928485D01*
X129835358Y-58988354D01*
X129835349Y-58988359D01*
X129808236Y-59005813D01*
X129808193Y-59005842D01*
X129755994Y-59044403D01*
X129714375Y-59079495D01*
X129690747Y-59100721D01*
X129641928Y-59147432D01*
X129631868Y-59157330D01*
X129629552Y-59159673D01*
X129621478Y-59168033D01*
X129593650Y-59197517D01*
X129533319Y-59232758D01*
X129503475Y-59236403D01*
X129372104Y-59236403D01*
X129300166Y-59241547D01*
X129162112Y-59282085D01*
X129041076Y-59359870D01*
X129041072Y-59359874D01*
X128946857Y-59468603D01*
X128946851Y-59468612D01*
X128887083Y-59599483D01*
X128887082Y-59599488D01*
X128866607Y-59741902D01*
X128866607Y-60271493D01*
X128869428Y-60297047D01*
X128857219Y-60365842D01*
X128856954Y-60366373D01*
X128838212Y-60403633D01*
X128838211Y-60403635D01*
X128793686Y-60522744D01*
X128772626Y-60595133D01*
X128764753Y-60632345D01*
X128764750Y-60632363D01*
X128755066Y-60701328D01*
X128751711Y-60748790D01*
X128751711Y-60748792D01*
X128752386Y-60784945D01*
X128733955Y-60852340D01*
X128686914Y-60896587D01*
X128625813Y-60929283D01*
X128546610Y-60981797D01*
X128546597Y-60981807D01*
X128425681Y-61079512D01*
X128425679Y-61079514D01*
X128363344Y-61139383D01*
X128363332Y-61139396D01*
X128258222Y-61259245D01*
X128258215Y-61259255D01*
X128206803Y-61329175D01*
X128123573Y-61465526D01*
X128123545Y-61465575D01*
X128100122Y-61508492D01*
X128100118Y-61508501D01*
X128087158Y-61535252D01*
X128078231Y-61554719D01*
X128057891Y-61601677D01*
X128038112Y-61655533D01*
X128038101Y-61655564D01*
X128024752Y-61699468D01*
X128009467Y-61765232D01*
X128001269Y-61815546D01*
X127996054Y-61859718D01*
X127991183Y-61925851D01*
X127990160Y-61944365D01*
X127986794Y-62035663D01*
X127986791Y-62035761D01*
X127986677Y-62039164D01*
X127984524Y-62110638D01*
X127984524Y-62110639D01*
X127980345Y-62249342D01*
X127980345Y-62249351D01*
X127980345Y-62249361D01*
X127982021Y-62308419D01*
X128014775Y-62448521D01*
X128014776Y-62448522D01*
X128085675Y-62573721D01*
X128188975Y-62673874D01*
X128188977Y-62673875D01*
X128188978Y-62673876D01*
X128251447Y-62706743D01*
X128301610Y-62755378D01*
X128317516Y-62823413D01*
X128316622Y-62832871D01*
X128301426Y-62946828D01*
X128299380Y-63062748D01*
X128299381Y-63062756D01*
X128304338Y-63113555D01*
X128304342Y-63113588D01*
X128313499Y-63207413D01*
X128339022Y-63323957D01*
X128339024Y-63323963D01*
X128339025Y-63323967D01*
X128387093Y-63462540D01*
X128398089Y-63485606D01*
X128435267Y-63563595D01*
X128480268Y-63636045D01*
X128485538Y-63644529D01*
X128485538Y-63644530D01*
X128515564Y-63692869D01*
X128515567Y-63692882D01*
X128515571Y-63692881D01*
X128517073Y-63695300D01*
X128517092Y-63695328D01*
X128524259Y-63704712D01*
X128525456Y-63706307D01*
X128562974Y-63757235D01*
X128562978Y-63757240D01*
X128567100Y-63761701D01*
X128574570Y-63770585D01*
X128576225Y-63772752D01*
X128691670Y-63896981D01*
X128723130Y-63927999D01*
X128733114Y-63937017D01*
X128748772Y-63950588D01*
X128748778Y-63950593D01*
X128799309Y-63992607D01*
X128799312Y-63992608D01*
X128799320Y-63992615D01*
X128882116Y-64048603D01*
X128915302Y-64066542D01*
X128961159Y-64087213D01*
X128987759Y-64099203D01*
X128986891Y-64101127D01*
X129036260Y-64135009D01*
X129063347Y-64199414D01*
X129051314Y-64268240D01*
X129003981Y-64319634D01*
X128948279Y-64337069D01*
X128850570Y-64343502D01*
X128850567Y-64343503D01*
X128757459Y-64358450D01*
X128757436Y-64358455D01*
X128642604Y-64388094D01*
X128642574Y-64388103D01*
X128546291Y-64423724D01*
X128546266Y-64423735D01*
X128446450Y-64472703D01*
X128446444Y-64472706D01*
X128349219Y-64535109D01*
X128268100Y-64601400D01*
X128268093Y-64601407D01*
X128177693Y-64697524D01*
X128119004Y-64779065D01*
X128116992Y-64781881D01*
X128051272Y-64909872D01*
X128051268Y-64909881D01*
X128018618Y-65004721D01*
X128015661Y-65013574D01*
X127991265Y-65155368D01*
X127991264Y-65155371D01*
X127988335Y-65261558D01*
X127995240Y-65359902D01*
X127995241Y-65359905D01*
X128003009Y-65405770D01*
X128025717Y-65493073D01*
X128024845Y-65493299D01*
X128025659Y-65559557D01*
X128015866Y-65584075D01*
X128015687Y-65584411D01*
X127966685Y-65719692D01*
X127966683Y-65719702D01*
X127962043Y-65742045D01*
X127962034Y-65742099D01*
X127952327Y-65815666D01*
X127952325Y-65815687D01*
X127951844Y-65824018D01*
X127960935Y-65952867D01*
X127960936Y-65952869D01*
X127972357Y-66009628D01*
X127972359Y-66009634D01*
X128010148Y-66124320D01*
X128041136Y-66190482D01*
X128062442Y-66227674D01*
X128066568Y-66234876D01*
X128082812Y-66302831D01*
X128062336Y-66365012D01*
X128057839Y-66371797D01*
X127996233Y-66501824D01*
X127973756Y-66643940D01*
X127971167Y-66828009D01*
X127969041Y-66979198D01*
X127967051Y-67120734D01*
X127964327Y-67314468D01*
X127971717Y-67407968D01*
X127971717Y-67407970D01*
X127971718Y-67407973D01*
X128016238Y-67544792D01*
X128097501Y-67663526D01*
X128208924Y-67754556D01*
X128341479Y-67810508D01*
X128484429Y-67826848D01*
X128685656Y-67821013D01*
X128685658Y-67821013D01*
X128886885Y-67815177D01*
X128925239Y-67809384D01*
X128976694Y-67812449D01*
X128989449Y-67815964D01*
X129021668Y-67820047D01*
X129038561Y-67821900D01*
X129182259Y-67814657D01*
X129208598Y-67809505D01*
X129308278Y-67775234D01*
X129378073Y-67772053D01*
X129394271Y-67777218D01*
X129459369Y-67803018D01*
X129489508Y-67810219D01*
X129520266Y-67816565D01*
X129664084Y-67820822D01*
X129685614Y-67818374D01*
X129717260Y-67818841D01*
X129753540Y-67824058D01*
X129753544Y-67824058D01*
X129840221Y-67824058D01*
X129840229Y-67824058D01*
X129910967Y-67819084D01*
X130012032Y-67789672D01*
X130081899Y-67789839D01*
X130098186Y-67795936D01*
X130114929Y-67803582D01*
X130257345Y-67824058D01*
X130257348Y-67824058D01*
X130343028Y-67824058D01*
X130414968Y-67818913D01*
X130530188Y-67785081D01*
X130600057Y-67785081D01*
X130607447Y-67787505D01*
X130654262Y-67804506D01*
X130688058Y-67811552D01*
X130762288Y-67821364D01*
X130819013Y-67824617D01*
X130849356Y-67825444D01*
X130920000Y-67825248D01*
X130940637Y-67824769D01*
X130993673Y-67822454D01*
X131016195Y-67821472D01*
X131024052Y-67820967D01*
X131036835Y-67820147D01*
X131108282Y-67814092D01*
X131138199Y-67810657D01*
X131185320Y-67803818D01*
X131242229Y-67808858D01*
X131246800Y-67810377D01*
X131278473Y-67816074D01*
X131301781Y-67819707D01*
X131445652Y-67818052D01*
X131456871Y-67816307D01*
X131573988Y-67783268D01*
X131573993Y-67783264D01*
X131579338Y-67780963D01*
X131648695Y-67772520D01*
X131679692Y-67781957D01*
X131708104Y-67794869D01*
X131738876Y-67803843D01*
X131814953Y-67819803D01*
X131922089Y-67818413D01*
X131923884Y-67818404D01*
X131936053Y-67818433D01*
X131937939Y-67819046D01*
X132081761Y-67823128D01*
X132129806Y-67817606D01*
X132129807Y-67817607D01*
X132177865Y-67812085D01*
X132297522Y-67781276D01*
X132367353Y-67783622D01*
X132379953Y-67788565D01*
X132393850Y-67794912D01*
X132393853Y-67794912D01*
X132393854Y-67794913D01*
X132536270Y-67815389D01*
X132536273Y-67815389D01*
X132622947Y-67815389D01*
X132622960Y-67815389D01*
X132686498Y-67811380D01*
X132773156Y-67787506D01*
X132825206Y-67773167D01*
X132825208Y-67773165D01*
X132825211Y-67773165D01*
X132842196Y-67762648D01*
X136784500Y-67762648D01*
X136784500Y-67967351D01*
X136816522Y-68169534D01*
X136879781Y-68364223D01*
X136972715Y-68546613D01*
X137093028Y-68712213D01*
X137237786Y-68856971D01*
X137352323Y-68940185D01*
X137403390Y-68977287D01*
X137519607Y-69036503D01*
X137585776Y-69070218D01*
X137585778Y-69070218D01*
X137585781Y-69070220D01*
X137690137Y-69104127D01*
X137780465Y-69133477D01*
X137881557Y-69149488D01*
X137982648Y-69165500D01*
X137982649Y-69165500D01*
X138187351Y-69165500D01*
X138187352Y-69165500D01*
X138389534Y-69133477D01*
X138584219Y-69070220D01*
X138766610Y-68977287D01*
X138859590Y-68909732D01*
X138932213Y-68856971D01*
X138932215Y-68856968D01*
X138932219Y-68856966D01*
X139076966Y-68712219D01*
X139076968Y-68712215D01*
X139076971Y-68712213D01*
X139140672Y-68624534D01*
X139197287Y-68546610D01*
X139290220Y-68364219D01*
X139353477Y-68169534D01*
X139385500Y-67967352D01*
X139385500Y-67762648D01*
X139375169Y-67697419D01*
X139353477Y-67560465D01*
X139290218Y-67365776D01*
X139225355Y-67238477D01*
X139197287Y-67183390D01*
X139180646Y-67160485D01*
X139076971Y-67017786D01*
X138932213Y-66873028D01*
X138766613Y-66752715D01*
X138766612Y-66752714D01*
X138766610Y-66752713D01*
X138709653Y-66723691D01*
X138584223Y-66659781D01*
X138389534Y-66596522D01*
X138214995Y-66568878D01*
X138187352Y-66564500D01*
X137982648Y-66564500D01*
X137958329Y-66568351D01*
X137780465Y-66596522D01*
X137585776Y-66659781D01*
X137403386Y-66752715D01*
X137237786Y-66873028D01*
X137093028Y-67017786D01*
X136972715Y-67183386D01*
X136879781Y-67365776D01*
X136816522Y-67560465D01*
X136784500Y-67762648D01*
X132842196Y-67762648D01*
X132947538Y-67697419D01*
X132977917Y-67663526D01*
X133000446Y-67638390D01*
X133043570Y-67590277D01*
X133105527Y-67460419D01*
X133128389Y-67318367D01*
X133133333Y-67023623D01*
X133133365Y-67021419D01*
X133133379Y-67020346D01*
X133134267Y-66948723D01*
X133134269Y-66948588D01*
X133134307Y-66943297D01*
X133134490Y-66849220D01*
X133134453Y-66842006D01*
X133134107Y-66813949D01*
X133152962Y-66746677D01*
X133205197Y-66700273D01*
X133253414Y-66688511D01*
X133265233Y-66688065D01*
X133404739Y-66662903D01*
X133533540Y-66598779D01*
X133533542Y-66598776D01*
X133533544Y-66598776D01*
X133540405Y-66594035D01*
X133606747Y-66572115D01*
X133674408Y-66589542D01*
X133681828Y-66594332D01*
X133686488Y-66597582D01*
X133686491Y-66597584D01*
X133686493Y-66597585D01*
X133686496Y-66597587D01*
X133815018Y-66662238D01*
X133815021Y-66662239D01*
X133815025Y-66662241D01*
X133956568Y-66688067D01*
X134091053Y-66693136D01*
X134092188Y-66693173D01*
X134095643Y-66693288D01*
X134095682Y-66693289D01*
X134095709Y-66693290D01*
X134135510Y-66694423D01*
X134160428Y-66694518D01*
X134160428Y-66694517D01*
X134160429Y-66694518D01*
X134163181Y-66694460D01*
X134218242Y-66693313D01*
X134307580Y-66683459D01*
X134328239Y-66679295D01*
X134385044Y-66681132D01*
X134400856Y-66685400D01*
X134400863Y-66685400D01*
X134400864Y-66685401D01*
X134443973Y-66690634D01*
X134443981Y-66690634D01*
X134443986Y-66690635D01*
X134510405Y-66694288D01*
X134583065Y-66693496D01*
X134598007Y-66693112D01*
X134723958Y-66688012D01*
X134764554Y-66684726D01*
X134903455Y-66647200D01*
X135015698Y-66578466D01*
X135083147Y-66560244D01*
X135149743Y-66581381D01*
X135153961Y-66584353D01*
X135199977Y-66618231D01*
X135221329Y-66629670D01*
X135252138Y-66644852D01*
X135329428Y-66667166D01*
X135390370Y-66684762D01*
X135432443Y-66690617D01*
X135432456Y-66690618D01*
X135432483Y-66690622D01*
X135480510Y-66694518D01*
X135490197Y-66695304D01*
X135490201Y-66695304D01*
X135490211Y-66695305D01*
X135506067Y-66695679D01*
X135559964Y-66696954D01*
X135573139Y-66697093D01*
X135573171Y-66697092D01*
X135573179Y-66697093D01*
X135597771Y-66697032D01*
X135611020Y-66696826D01*
X135667635Y-66695201D01*
X135738300Y-66688183D01*
X135770694Y-66682646D01*
X135855625Y-66660394D01*
X135982845Y-66593189D01*
X135994988Y-66584358D01*
X135998958Y-66581471D01*
X136001461Y-66579638D01*
X136001475Y-66579628D01*
X136103979Y-66478661D01*
X136173885Y-66352904D01*
X136181553Y-66332810D01*
X136212991Y-66194980D01*
X136214910Y-66172179D01*
X136216450Y-66145404D01*
X136218126Y-66091190D01*
X136218309Y-66083250D01*
X136219537Y-66002434D01*
X136219582Y-65998427D01*
X136220332Y-65895205D01*
X136220344Y-65892548D01*
X136220588Y-65771119D01*
X136220588Y-65769009D01*
X136220295Y-65633570D01*
X136220287Y-65631675D01*
X136219469Y-65493299D01*
X136219428Y-65486387D01*
X136219428Y-65486386D01*
X136219422Y-65485449D01*
X136219422Y-65485448D01*
X136215699Y-65004763D01*
X136214588Y-64861332D01*
X136212113Y-64815134D01*
X136177619Y-64675449D01*
X136105168Y-64551141D01*
X136000631Y-64452280D01*
X135872476Y-64386875D01*
X135872474Y-64386874D01*
X135872471Y-64386873D01*
X135731091Y-64360225D01*
X135731094Y-64360225D01*
X135612453Y-64355061D01*
X135593492Y-64354594D01*
X135534497Y-64354250D01*
X135534496Y-64354250D01*
X135534495Y-64354250D01*
X135526199Y-64354594D01*
X135486735Y-64356230D01*
X135433462Y-64360970D01*
X135342774Y-64379229D01*
X135324744Y-64382859D01*
X135324742Y-64382859D01*
X135324740Y-64382860D01*
X135324736Y-64382861D01*
X135295752Y-64392099D01*
X135295736Y-64392105D01*
X135187122Y-64441508D01*
X135187118Y-64441511D01*
X135160139Y-64463687D01*
X135095849Y-64491048D01*
X135026973Y-64479309D01*
X135000199Y-64461605D01*
X134975262Y-64439997D01*
X134975260Y-64439995D01*
X134975257Y-64439993D01*
X134975253Y-64439991D01*
X134844382Y-64380223D01*
X134844377Y-64380222D01*
X134701963Y-64359747D01*
X134443438Y-64359747D01*
X134416423Y-64361582D01*
X134375055Y-64364393D01*
X134375046Y-64364395D01*
X134236717Y-64403947D01*
X134236716Y-64403948D01*
X134188572Y-64434408D01*
X134121394Y-64453616D01*
X134055238Y-64433936D01*
X134051173Y-64431324D01*
X133920298Y-64371554D01*
X133920293Y-64371553D01*
X133777879Y-64351078D01*
X133614317Y-64351078D01*
X133614312Y-64351078D01*
X133601616Y-64351238D01*
X133509062Y-64353571D01*
X133488336Y-64355061D01*
X133462139Y-64356944D01*
X133462133Y-64356944D01*
X133462115Y-64356946D01*
X133401615Y-64364138D01*
X133397241Y-64364676D01*
X133331505Y-64382860D01*
X133258566Y-64403036D01*
X133256481Y-64403949D01*
X133230811Y-64415187D01*
X133182615Y-64439430D01*
X133154176Y-64461605D01*
X133089578Y-64511972D01*
X133024608Y-64537670D01*
X132956056Y-64524163D01*
X132940473Y-64514520D01*
X132936788Y-64511844D01*
X132936768Y-64511831D01*
X132863726Y-64467698D01*
X132786228Y-64429400D01*
X132786225Y-64429399D01*
X132728246Y-64407132D01*
X132699255Y-64395998D01*
X132639697Y-64379232D01*
X132639695Y-64379231D01*
X132639686Y-64379229D01*
X132575655Y-64365480D01*
X132575774Y-64364921D01*
X132515358Y-64334525D01*
X132479828Y-64274363D01*
X132482465Y-64204543D01*
X132522431Y-64147232D01*
X132573207Y-64122882D01*
X132683102Y-64098531D01*
X132684933Y-64097840D01*
X132801361Y-64035456D01*
X132822825Y-64020038D01*
X132846360Y-64002065D01*
X132885243Y-63970525D01*
X132894722Y-63962642D01*
X132944178Y-63920485D01*
X132964009Y-63902656D01*
X133008815Y-63860185D01*
X133018963Y-63850566D01*
X133018966Y-63850562D01*
X133018972Y-63850557D01*
X133065847Y-63799591D01*
X133125855Y-63724629D01*
X133171123Y-63657758D01*
X133223827Y-63564661D01*
X133239870Y-63533906D01*
X133268096Y-63474948D01*
X133282814Y-63441084D01*
X133302711Y-63390304D01*
X133325155Y-63317145D01*
X133336016Y-63269008D01*
X133346873Y-63197167D01*
X133351404Y-63139237D01*
X133352911Y-63105552D01*
X133353820Y-63025394D01*
X133353834Y-63015399D01*
X133353282Y-62949942D01*
X133352433Y-62924618D01*
X133348774Y-62862211D01*
X133341588Y-62803718D01*
X133352951Y-62734784D01*
X133398994Y-62683419D01*
X133464966Y-62642233D01*
X133468353Y-62639375D01*
X133501193Y-62609080D01*
X133586967Y-62493562D01*
X133636720Y-62358558D01*
X133642670Y-62330682D01*
X133652969Y-62254240D01*
X133655915Y-62203110D01*
X133656751Y-62175181D01*
X133656902Y-62108764D01*
X133656628Y-62090937D01*
X133654194Y-62017202D01*
X133653378Y-62000689D01*
X133648569Y-61927605D01*
X133646727Y-61906418D01*
X133639752Y-61841954D01*
X133634111Y-61803625D01*
X133625179Y-61755748D01*
X133615563Y-61714069D01*
X133610927Y-61697258D01*
X133606471Y-61683123D01*
X133599900Y-61662276D01*
X133566846Y-61569314D01*
X133566830Y-61569273D01*
X133543644Y-61516523D01*
X133537368Y-61502244D01*
X133490588Y-61413823D01*
X133474316Y-61387073D01*
X133459154Y-61362146D01*
X133459147Y-61362136D01*
X133391944Y-61265233D01*
X133364719Y-61229483D01*
X133364717Y-61229480D01*
X133318011Y-61173495D01*
X133272933Y-61126071D01*
X133222553Y-61079514D01*
X133189123Y-61048620D01*
X133189121Y-61048618D01*
X133189119Y-61048616D01*
X133189111Y-61048609D01*
X133132326Y-61003247D01*
X133101117Y-60981800D01*
X133027672Y-60931328D01*
X132981714Y-60903229D01*
X132955250Y-60888928D01*
X132905630Y-60839738D01*
X132890206Y-60779112D01*
X132890367Y-60751656D01*
X132890218Y-60748777D01*
X132885654Y-60660292D01*
X132885653Y-60660279D01*
X132866122Y-60544849D01*
X132866121Y-60544842D01*
X132844073Y-60469217D01*
X132789993Y-60346916D01*
X132789989Y-60346909D01*
X132788084Y-60343272D01*
X132789471Y-60342545D01*
X132773393Y-60282915D01*
X132773033Y-60282915D01*
X132773033Y-60281581D01*
X132772977Y-60281374D01*
X132773033Y-60280177D01*
X132773033Y-59740124D01*
X132773031Y-59740098D01*
X132766285Y-59657802D01*
X132766285Y-59657801D01*
X132722890Y-59520620D01*
X132642604Y-59401223D01*
X132642602Y-59401221D01*
X132642601Y-59401220D01*
X132531931Y-59309280D01*
X132399840Y-59252242D01*
X132274542Y-59236877D01*
X132257030Y-59234730D01*
X132257029Y-59234730D01*
X132140558Y-59237150D01*
X132073124Y-59218863D01*
X132049307Y-59199853D01*
X132047024Y-59197517D01*
X132008529Y-59158134D01*
X132003099Y-59152662D01*
X131950755Y-59100719D01*
X131885404Y-59035868D01*
X131787733Y-58960213D01*
X131787728Y-58960210D01*
X131654864Y-58905013D01*
X131654862Y-58905012D01*
X131654861Y-58905012D01*
X131654860Y-58905011D01*
X131654857Y-58905011D01*
X131588213Y-58897775D01*
X131523690Y-58870969D01*
X131483902Y-58813535D01*
X131481482Y-58743707D01*
X131517198Y-58683656D01*
X131579710Y-58652447D01*
X131601598Y-58650500D01*
X160360500Y-58650500D01*
X160369185Y-58653050D01*
X160378147Y-58651762D01*
X160402187Y-58662740D01*
X160427539Y-58670185D01*
X160433466Y-58677025D01*
X160441703Y-58680787D01*
X160455992Y-58703021D01*
X160473294Y-58722989D01*
X160475581Y-58733503D01*
X160479477Y-58739565D01*
X160484500Y-58774500D01*
X160484500Y-58807103D01*
X160464815Y-58874142D01*
X160412011Y-58919897D01*
X160360500Y-58931103D01*
X151536510Y-58931103D01*
X151536510Y-61746655D01*
X160360500Y-61746655D01*
X160427539Y-61766340D01*
X160473294Y-61819144D01*
X160484500Y-61870655D01*
X160484500Y-86325500D01*
X160464815Y-86392539D01*
X160412011Y-86438294D01*
X160360500Y-86449500D01*
X127809500Y-86449500D01*
X127742461Y-86429815D01*
X127696706Y-86377011D01*
X127685500Y-86325500D01*
X127685500Y-76002135D01*
X128984500Y-76002135D01*
X128984500Y-78097870D01*
X128984501Y-78097876D01*
X128990908Y-78157483D01*
X129041202Y-78292328D01*
X129041206Y-78292335D01*
X129127452Y-78407544D01*
X129127455Y-78407547D01*
X129242664Y-78493793D01*
X129242671Y-78493797D01*
X129377517Y-78544091D01*
X129377516Y-78544091D01*
X129384444Y-78544835D01*
X129437127Y-78550500D01*
X131084902Y-78550499D01*
X131114342Y-78559143D01*
X131144329Y-78565667D01*
X131149344Y-78569421D01*
X131151941Y-78570184D01*
X131172583Y-78586818D01*
X131301139Y-78715374D01*
X131301149Y-78715385D01*
X131305479Y-78719715D01*
X131305480Y-78719716D01*
X131417284Y-78831520D01*
X131492509Y-78874950D01*
X131504095Y-78881639D01*
X131504097Y-78881641D01*
X131542151Y-78903611D01*
X131554215Y-78910577D01*
X131706943Y-78951501D01*
X131706946Y-78951501D01*
X131872653Y-78951501D01*
X131872669Y-78951500D01*
X138537223Y-78951500D01*
X138537239Y-78951501D01*
X138544835Y-78951501D01*
X138702946Y-78951501D01*
X138702949Y-78951501D01*
X138855677Y-78910577D01*
X138905796Y-78881639D01*
X138992608Y-78831520D01*
X139104412Y-78719716D01*
X139104412Y-78719714D01*
X139114620Y-78709507D01*
X139114622Y-78709504D01*
X141967819Y-75856307D01*
X142029142Y-75822822D01*
X142098834Y-75827806D01*
X142154767Y-75869678D01*
X142179184Y-75935142D01*
X142179500Y-75943988D01*
X142179500Y-78923330D01*
X142179499Y-78923348D01*
X142179499Y-79089054D01*
X142179498Y-79089054D01*
X142220423Y-79241785D01*
X142249358Y-79291900D01*
X142249359Y-79291904D01*
X142249360Y-79291904D01*
X142299479Y-79378714D01*
X142299481Y-79378717D01*
X142418349Y-79497585D01*
X142418355Y-79497590D01*
X143120681Y-80199916D01*
X143154166Y-80261239D01*
X143157000Y-80287597D01*
X143157000Y-82387501D01*
X143157001Y-82387518D01*
X143167500Y-82490296D01*
X143167501Y-82490299D01*
X143222685Y-82656831D01*
X143222687Y-82656836D01*
X143226049Y-82662287D01*
X143314788Y-82806156D01*
X143438844Y-82930212D01*
X143588166Y-83022314D01*
X143754703Y-83077499D01*
X143857491Y-83088000D01*
X145257508Y-83087999D01*
X145360297Y-83077499D01*
X145526834Y-83022314D01*
X145676156Y-82930212D01*
X145800212Y-82806156D01*
X145892314Y-82656834D01*
X145947499Y-82490297D01*
X145958000Y-82387509D01*
X145957999Y-79777318D01*
X148237500Y-79777318D01*
X148237500Y-80537500D01*
X149089018Y-80537500D01*
X149078389Y-80555909D01*
X149037500Y-80708509D01*
X149037500Y-80866491D01*
X149078389Y-81019091D01*
X149089018Y-81037500D01*
X148237500Y-81037500D01*
X148237500Y-81797681D01*
X148271973Y-82015335D01*
X148340067Y-82224910D01*
X148440113Y-82421260D01*
X148569642Y-82599541D01*
X148725458Y-82755357D01*
X148903739Y-82884886D01*
X149100089Y-82984932D01*
X149309663Y-83053026D01*
X149387499Y-83065354D01*
X149387500Y-83065354D01*
X149387500Y-81335982D01*
X149405909Y-81346611D01*
X149558509Y-81387500D01*
X149716491Y-81387500D01*
X149869091Y-81346611D01*
X149887500Y-81335982D01*
X149887500Y-83065354D01*
X149965334Y-83053026D01*
X149965337Y-83053026D01*
X150174910Y-82984932D01*
X150371260Y-82884886D01*
X150549541Y-82755357D01*
X150705357Y-82599541D01*
X150834886Y-82421260D01*
X150934932Y-82224910D01*
X151003026Y-82015335D01*
X151037500Y-81797681D01*
X151037500Y-81037500D01*
X150185982Y-81037500D01*
X150196611Y-81019091D01*
X150237500Y-80866491D01*
X150237500Y-80708509D01*
X150196611Y-80555909D01*
X150185982Y-80537500D01*
X151037500Y-80537500D01*
X151037500Y-79777318D01*
X151003026Y-79559664D01*
X150934932Y-79350089D01*
X150834886Y-79153739D01*
X150705357Y-78975458D01*
X150549541Y-78819642D01*
X150371260Y-78690113D01*
X150174910Y-78590067D01*
X149965336Y-78521973D01*
X149887500Y-78509644D01*
X149887500Y-80239017D01*
X149869091Y-80228389D01*
X149716491Y-80187500D01*
X149558509Y-80187500D01*
X149405909Y-80228389D01*
X149387500Y-80239017D01*
X149387500Y-78509644D01*
X149309664Y-78521973D01*
X149309661Y-78521973D01*
X149100089Y-78590067D01*
X148903739Y-78690113D01*
X148725458Y-78819642D01*
X148569642Y-78975458D01*
X148440113Y-79153739D01*
X148340067Y-79350089D01*
X148271973Y-79559664D01*
X148237500Y-79777318D01*
X145957999Y-79777318D01*
X145957999Y-79187492D01*
X145947499Y-79084703D01*
X145892314Y-78918166D01*
X145800212Y-78768844D01*
X145676156Y-78644788D01*
X145526834Y-78552686D01*
X145360297Y-78497501D01*
X145360295Y-78497500D01*
X145257510Y-78487000D01*
X143857498Y-78487000D01*
X143857481Y-78487001D01*
X143754703Y-78497500D01*
X143754700Y-78497501D01*
X143588168Y-78552685D01*
X143588156Y-78552691D01*
X143569594Y-78564140D01*
X143502201Y-78582579D01*
X143435538Y-78561655D01*
X143390770Y-78508011D01*
X143380500Y-78458600D01*
X143380500Y-72089601D01*
X143400185Y-72022562D01*
X143448206Y-71979116D01*
X143461610Y-71972287D01*
X143627219Y-71851966D01*
X143771966Y-71707219D01*
X143771968Y-71707215D01*
X143771971Y-71707213D01*
X143824732Y-71634590D01*
X143892287Y-71541610D01*
X143985220Y-71359219D01*
X144048477Y-71164534D01*
X144080500Y-70962352D01*
X144080500Y-70757648D01*
X144064858Y-70658888D01*
X144048477Y-70555465D01*
X143991296Y-70379481D01*
X143985220Y-70360781D01*
X143985218Y-70360778D01*
X143985218Y-70360776D01*
X143951503Y-70294607D01*
X143892287Y-70178390D01*
X143884556Y-70167749D01*
X143771971Y-70012786D01*
X143627213Y-69868028D01*
X143461614Y-69747715D01*
X143455006Y-69744348D01*
X143368917Y-69700483D01*
X143318123Y-69652511D01*
X143301328Y-69584690D01*
X143323865Y-69518555D01*
X143368917Y-69479516D01*
X143461610Y-69432287D01*
X143482770Y-69416913D01*
X143627213Y-69311971D01*
X143627215Y-69311968D01*
X143627219Y-69311966D01*
X143771966Y-69167219D01*
X143771968Y-69167215D01*
X143771971Y-69167213D01*
X143855472Y-69052282D01*
X143892287Y-69001610D01*
X143985220Y-68819219D01*
X144048477Y-68624534D01*
X144080500Y-68422352D01*
X144080500Y-68229097D01*
X144100185Y-68162058D01*
X144152989Y-68116303D01*
X144222147Y-68106359D01*
X144285703Y-68135384D01*
X144292181Y-68141416D01*
X154015139Y-77864374D01*
X154015149Y-77864385D01*
X154019479Y-77868715D01*
X154019480Y-77868716D01*
X154131284Y-77980520D01*
X154185898Y-78012051D01*
X154268215Y-78059577D01*
X154386898Y-78091378D01*
X154393801Y-78094149D01*
X154415632Y-78111347D01*
X154439369Y-78125816D01*
X154445782Y-78135100D01*
X154448685Y-78137387D01*
X154450005Y-78141214D01*
X154458099Y-78152930D01*
X154472713Y-78181611D01*
X154593028Y-78347213D01*
X154737786Y-78491971D01*
X154892749Y-78604556D01*
X154903390Y-78612287D01*
X155019607Y-78671503D01*
X155085776Y-78705218D01*
X155085778Y-78705218D01*
X155085781Y-78705220D01*
X155190137Y-78739127D01*
X155280465Y-78768477D01*
X155381557Y-78784488D01*
X155482648Y-78800500D01*
X155482649Y-78800500D01*
X155687351Y-78800500D01*
X155687352Y-78800500D01*
X155889534Y-78768477D01*
X156084219Y-78705220D01*
X156266610Y-78612287D01*
X156390918Y-78521973D01*
X156432213Y-78491971D01*
X156432215Y-78491968D01*
X156432219Y-78491966D01*
X156576966Y-78347219D01*
X156576968Y-78347215D01*
X156576971Y-78347213D01*
X156697286Y-78181611D01*
X156697415Y-78181359D01*
X156724795Y-78127621D01*
X156772769Y-78076826D01*
X156840589Y-78060030D01*
X156906725Y-78082567D01*
X156945765Y-78127621D01*
X156973141Y-78181350D01*
X156973147Y-78181359D01*
X157005523Y-78225921D01*
X157005524Y-78225922D01*
X157685000Y-77546446D01*
X157685000Y-77552661D01*
X157712259Y-77654394D01*
X157764920Y-77745606D01*
X157839394Y-77820080D01*
X157930606Y-77872741D01*
X158032339Y-77900000D01*
X158038552Y-77900000D01*
X157359076Y-78579474D01*
X157403650Y-78611859D01*
X157585968Y-78704755D01*
X157780582Y-78767990D01*
X157982683Y-78800000D01*
X158187317Y-78800000D01*
X158389418Y-78767989D01*
X158389424Y-78767988D01*
X158423180Y-78757020D01*
X158493021Y-78755023D01*
X158552854Y-78791103D01*
X158583684Y-78853803D01*
X158585500Y-78874950D01*
X158585500Y-80175049D01*
X158565815Y-80242088D01*
X158513011Y-80287843D01*
X158443853Y-80297787D01*
X158423183Y-80292980D01*
X158389425Y-80282011D01*
X158389418Y-80282010D01*
X158187317Y-80250000D01*
X157982683Y-80250000D01*
X157780582Y-80282009D01*
X157585968Y-80345244D01*
X157403644Y-80438143D01*
X157359077Y-80470523D01*
X157359077Y-80470524D01*
X158038553Y-81150000D01*
X158032339Y-81150000D01*
X157930606Y-81177259D01*
X157839394Y-81229920D01*
X157764920Y-81304394D01*
X157712259Y-81395606D01*
X157685000Y-81497339D01*
X157685000Y-81503553D01*
X157005524Y-80824077D01*
X157005523Y-80824077D01*
X156973143Y-80868644D01*
X156945765Y-80922378D01*
X156897790Y-80973174D01*
X156829969Y-80989969D01*
X156763834Y-80967431D01*
X156724795Y-80922378D01*
X156697284Y-80868385D01*
X156576971Y-80702786D01*
X156432213Y-80558028D01*
X156266613Y-80437715D01*
X156266612Y-80437714D01*
X156266610Y-80437713D01*
X156209653Y-80408691D01*
X156084223Y-80344781D01*
X155889534Y-80281522D01*
X155714995Y-80253878D01*
X155687352Y-80249500D01*
X155482648Y-80249500D01*
X155458329Y-80253351D01*
X155280465Y-80281522D01*
X155085776Y-80344781D01*
X154903386Y-80437715D01*
X154737786Y-80558028D01*
X154593028Y-80702786D01*
X154472715Y-80868386D01*
X154379781Y-81050776D01*
X154316522Y-81245465D01*
X154289424Y-81416557D01*
X154284500Y-81447648D01*
X154284500Y-81652352D01*
X154287704Y-81672580D01*
X154316522Y-81854534D01*
X154379781Y-82049223D01*
X154443691Y-82174653D01*
X154469299Y-82224910D01*
X154472715Y-82231613D01*
X154593028Y-82397213D01*
X154737786Y-82541971D01*
X154892749Y-82654556D01*
X154903390Y-82662287D01*
X155019607Y-82721503D01*
X155085776Y-82755218D01*
X155085778Y-82755218D01*
X155085781Y-82755220D01*
X155190137Y-82789127D01*
X155280465Y-82818477D01*
X155308555Y-82822926D01*
X155482648Y-82850500D01*
X155482649Y-82850500D01*
X155687351Y-82850500D01*
X155687352Y-82850500D01*
X155889534Y-82818477D01*
X155903842Y-82813827D01*
X155919054Y-82813392D01*
X155933315Y-82808074D01*
X155953268Y-82812414D01*
X155973682Y-82811831D01*
X155987769Y-82819920D01*
X156001588Y-82822926D01*
X156029842Y-82844077D01*
X156201139Y-83015374D01*
X156201149Y-83015385D01*
X156205479Y-83019715D01*
X156205480Y-83019716D01*
X156317284Y-83131520D01*
X156404095Y-83181639D01*
X156404097Y-83181641D01*
X156442151Y-83203611D01*
X156454215Y-83210577D01*
X156606943Y-83251500D01*
X156765057Y-83251500D01*
X158454381Y-83251500D01*
X158454397Y-83251501D01*
X158461993Y-83251501D01*
X158620104Y-83251501D01*
X158620107Y-83251501D01*
X158772835Y-83210577D01*
X158822954Y-83181639D01*
X158909766Y-83131520D01*
X159021570Y-83019716D01*
X159021570Y-83019714D01*
X159031778Y-83009507D01*
X159031780Y-83009504D01*
X159544506Y-82496778D01*
X159544511Y-82496774D01*
X159554714Y-82486570D01*
X159554716Y-82486570D01*
X159666520Y-82374766D01*
X159719914Y-82282284D01*
X159745577Y-82237835D01*
X159786501Y-82085107D01*
X159786501Y-81926993D01*
X159786501Y-81919398D01*
X159786500Y-81919380D01*
X159786500Y-77133009D01*
X159786501Y-77132996D01*
X159786501Y-76964895D01*
X159786501Y-76964893D01*
X159745577Y-76812165D01*
X159714400Y-76758165D01*
X159714400Y-76758164D01*
X159666524Y-76675240D01*
X159666521Y-76675236D01*
X159666520Y-76675234D01*
X159554716Y-76563430D01*
X159554715Y-76563429D01*
X159550385Y-76559099D01*
X159550374Y-76559089D01*
X155553466Y-72562181D01*
X155519981Y-72500858D01*
X155524965Y-72431166D01*
X155566837Y-72375233D01*
X155632301Y-72350816D01*
X155641147Y-72350500D01*
X155687351Y-72350500D01*
X155687352Y-72350500D01*
X155889534Y-72318477D01*
X156084219Y-72255220D01*
X156266610Y-72162287D01*
X156366655Y-72089601D01*
X156432213Y-72041971D01*
X156432215Y-72041968D01*
X156432219Y-72041966D01*
X156576966Y-71897219D01*
X156576968Y-71897215D01*
X156576971Y-71897213D01*
X156629732Y-71824590D01*
X156697287Y-71731610D01*
X156790220Y-71549219D01*
X156853477Y-71354534D01*
X156885500Y-71152352D01*
X156885500Y-70947648D01*
X156853477Y-70745465D01*
X156790218Y-70550776D01*
X156756503Y-70484607D01*
X156697287Y-70368390D01*
X156689556Y-70357749D01*
X156576971Y-70202786D01*
X156432213Y-70058028D01*
X156266613Y-69937715D01*
X156266612Y-69937714D01*
X156266610Y-69937713D01*
X156209653Y-69908691D01*
X156084223Y-69844781D01*
X155889534Y-69781522D01*
X155714995Y-69753878D01*
X155687352Y-69749500D01*
X155482648Y-69749500D01*
X155444599Y-69755526D01*
X155280468Y-69781522D01*
X155271717Y-69784365D01*
X155266154Y-69786173D01*
X155196313Y-69788167D01*
X155140157Y-69755922D01*
X151673232Y-66288997D01*
X151639747Y-66227674D01*
X151642982Y-66162998D01*
X151648692Y-66145425D01*
X151668477Y-66084534D01*
X151700500Y-65882352D01*
X151700500Y-65677648D01*
X151693235Y-65631780D01*
X151668477Y-65475465D01*
X151605218Y-65280776D01*
X151571503Y-65214607D01*
X151512287Y-65098390D01*
X151464614Y-65032773D01*
X151391971Y-64932786D01*
X151247213Y-64788028D01*
X151081614Y-64667715D01*
X151074884Y-64664286D01*
X150988917Y-64620483D01*
X150938123Y-64572511D01*
X150921328Y-64504690D01*
X150943865Y-64438555D01*
X150988917Y-64399516D01*
X151081610Y-64352287D01*
X151105139Y-64335192D01*
X151247213Y-64231971D01*
X151247215Y-64231968D01*
X151247219Y-64231966D01*
X151391966Y-64087219D01*
X151391968Y-64087215D01*
X151391971Y-64087213D01*
X151512284Y-63921614D01*
X151512285Y-63921613D01*
X151512287Y-63921610D01*
X151519117Y-63908204D01*
X151567091Y-63857409D01*
X151629602Y-63840500D01*
X152554903Y-63840500D01*
X152621942Y-63860185D01*
X152642584Y-63876819D01*
X154290922Y-65525157D01*
X154324407Y-65586480D01*
X154321173Y-65651155D01*
X154316522Y-65665468D01*
X154299789Y-65771119D01*
X154284500Y-65867648D01*
X154284500Y-66072352D01*
X154287475Y-66091136D01*
X154316522Y-66274534D01*
X154379781Y-66469223D01*
X154428328Y-66564500D01*
X154469270Y-66644853D01*
X154472715Y-66651613D01*
X154593028Y-66817213D01*
X154737786Y-66961971D01*
X154866260Y-67055311D01*
X154903390Y-67082287D01*
X154980244Y-67121446D01*
X155085776Y-67175218D01*
X155085778Y-67175218D01*
X155085781Y-67175220D01*
X155185784Y-67207713D01*
X155280465Y-67238477D01*
X155381557Y-67254488D01*
X155482648Y-67270500D01*
X155482649Y-67270500D01*
X155687351Y-67270500D01*
X155687352Y-67270500D01*
X155889534Y-67238477D01*
X156084219Y-67175220D01*
X156266610Y-67082287D01*
X156397088Y-66987490D01*
X156432213Y-66961971D01*
X156432215Y-66961968D01*
X156432219Y-66961966D01*
X156576966Y-66817219D01*
X156576968Y-66817215D01*
X156576971Y-66817213D01*
X156629732Y-66744590D01*
X156697287Y-66651610D01*
X156790220Y-66469219D01*
X156853477Y-66274534D01*
X156885500Y-66072352D01*
X156885500Y-65867648D01*
X156862066Y-65719692D01*
X156853477Y-65665465D01*
X156807888Y-65525157D01*
X156790220Y-65470781D01*
X156790218Y-65470778D01*
X156790218Y-65470776D01*
X156756503Y-65404607D01*
X156697287Y-65288390D01*
X156677783Y-65261545D01*
X156576971Y-65122786D01*
X156432213Y-64978028D01*
X156266613Y-64857715D01*
X156266612Y-64857714D01*
X156266610Y-64857713D01*
X156183048Y-64815136D01*
X156084223Y-64764781D01*
X155889534Y-64701522D01*
X155714995Y-64673878D01*
X155687352Y-64669500D01*
X155482648Y-64669500D01*
X155445088Y-64675449D01*
X155280468Y-64701522D01*
X155271717Y-64704365D01*
X155266154Y-64706173D01*
X155196313Y-64708167D01*
X155140157Y-64675922D01*
X153342590Y-62878355D01*
X153342588Y-62878352D01*
X153223717Y-62759481D01*
X153223712Y-62759477D01*
X153119983Y-62699590D01*
X153119982Y-62699589D01*
X153086790Y-62680425D01*
X153086789Y-62680424D01*
X153074263Y-62677067D01*
X152934057Y-62639499D01*
X152775943Y-62639499D01*
X152768347Y-62639499D01*
X152768331Y-62639500D01*
X151629602Y-62639500D01*
X151562563Y-62619815D01*
X151519117Y-62571795D01*
X151512284Y-62558385D01*
X151391971Y-62392786D01*
X151247213Y-62248028D01*
X151081613Y-62127715D01*
X151081612Y-62127714D01*
X151081610Y-62127713D01*
X151009433Y-62090937D01*
X150899223Y-62034781D01*
X150704534Y-61971522D01*
X150529995Y-61943878D01*
X150502352Y-61939500D01*
X150297648Y-61939500D01*
X150273329Y-61943351D01*
X150095465Y-61971522D01*
X149900776Y-62034781D01*
X149718386Y-62127715D01*
X149552786Y-62248028D01*
X149408028Y-62392786D01*
X149287715Y-62558386D01*
X149194781Y-62740776D01*
X149131522Y-62935465D01*
X149099500Y-63137648D01*
X149099500Y-63342351D01*
X149131522Y-63544534D01*
X149194781Y-63739223D01*
X149225539Y-63799587D01*
X149287134Y-63920474D01*
X149287715Y-63921613D01*
X149408028Y-64087213D01*
X149552786Y-64231971D01*
X149697444Y-64337069D01*
X149718390Y-64352287D01*
X149809840Y-64398883D01*
X149811080Y-64399515D01*
X149861876Y-64447490D01*
X149878671Y-64515311D01*
X149856134Y-64581446D01*
X149811080Y-64620485D01*
X149718386Y-64667715D01*
X149552786Y-64788028D01*
X149408028Y-64932786D01*
X149287715Y-65098386D01*
X149194781Y-65280776D01*
X149131522Y-65475465D01*
X149099500Y-65677648D01*
X149099500Y-65882351D01*
X149131522Y-66084534D01*
X149194781Y-66279223D01*
X149287715Y-66461613D01*
X149408028Y-66627213D01*
X149552786Y-66771971D01*
X149691882Y-66873028D01*
X149718390Y-66892287D01*
X149809840Y-66938883D01*
X149811080Y-66939515D01*
X149861876Y-66987490D01*
X149878671Y-67055311D01*
X149856134Y-67121446D01*
X149811080Y-67160485D01*
X149718386Y-67207715D01*
X149552786Y-67328028D01*
X149408028Y-67472786D01*
X149287715Y-67638385D01*
X149280883Y-67651795D01*
X149232909Y-67702591D01*
X149170398Y-67719500D01*
X146273937Y-67719500D01*
X146206898Y-67699815D01*
X146186256Y-67683181D01*
X144090127Y-65587052D01*
X144056642Y-65525729D01*
X144055340Y-65518803D01*
X144048477Y-65475466D01*
X143985220Y-65280781D01*
X143892287Y-65098390D01*
X143844614Y-65032773D01*
X143771971Y-64932786D01*
X143627217Y-64788032D01*
X143627212Y-64788028D01*
X143533051Y-64719616D01*
X143490385Y-64664286D01*
X143484406Y-64594673D01*
X143517012Y-64532878D01*
X143566933Y-64501592D01*
X143649117Y-64474359D01*
X143649124Y-64474356D01*
X143798345Y-64382315D01*
X143922315Y-64258345D01*
X144014356Y-64109124D01*
X144014358Y-64109119D01*
X144069505Y-63942697D01*
X144069506Y-63942690D01*
X144079999Y-63839986D01*
X144080000Y-63839973D01*
X144080000Y-63490000D01*
X143095686Y-63490000D01*
X143100080Y-63485606D01*
X143152741Y-63394394D01*
X143180000Y-63292661D01*
X143180000Y-63187339D01*
X143152741Y-63085606D01*
X143100080Y-62994394D01*
X143095686Y-62990000D01*
X144079999Y-62990000D01*
X144079999Y-62640028D01*
X144079998Y-62640013D01*
X144069505Y-62537302D01*
X144014358Y-62370880D01*
X144014356Y-62370875D01*
X143922315Y-62221654D01*
X143798345Y-62097684D01*
X143649124Y-62005643D01*
X143649119Y-62005641D01*
X143482697Y-61950494D01*
X143482690Y-61950493D01*
X143379986Y-61940000D01*
X143030000Y-61940000D01*
X143030000Y-62924314D01*
X143025606Y-62919920D01*
X142934394Y-62867259D01*
X142832661Y-62840000D01*
X142727339Y-62840000D01*
X142625606Y-62867259D01*
X142534394Y-62919920D01*
X142530000Y-62924314D01*
X142530000Y-61940000D01*
X142180028Y-61940000D01*
X142180012Y-61940001D01*
X142077302Y-61950494D01*
X141910880Y-62005641D01*
X141910875Y-62005643D01*
X141761654Y-62097684D01*
X141637684Y-62221654D01*
X141545643Y-62370875D01*
X141545641Y-62370880D01*
X141490494Y-62537302D01*
X141490493Y-62537309D01*
X141480000Y-62640013D01*
X141480000Y-62677563D01*
X141460315Y-62744602D01*
X141407511Y-62790357D01*
X141338353Y-62800301D01*
X141274797Y-62771276D01*
X141268319Y-62765244D01*
X140926430Y-62423355D01*
X140926428Y-62423352D01*
X140807557Y-62304481D01*
X140807549Y-62304475D01*
X140709789Y-62248034D01*
X140709787Y-62248033D01*
X140670630Y-62225425D01*
X140670627Y-62225423D01*
X140609533Y-62209053D01*
X140517897Y-62184499D01*
X140359783Y-62184499D01*
X140352187Y-62184499D01*
X140352171Y-62184500D01*
X139314602Y-62184500D01*
X139247563Y-62164815D01*
X139204117Y-62116795D01*
X139200981Y-62110640D01*
X139197287Y-62103390D01*
X139197285Y-62103387D01*
X139197284Y-62103385D01*
X139076971Y-61937786D01*
X138932213Y-61793028D01*
X138766613Y-61672715D01*
X138766612Y-61672714D01*
X138766610Y-61672713D01*
X138709653Y-61643691D01*
X138584223Y-61579781D01*
X138389534Y-61516522D01*
X138214995Y-61488878D01*
X138187352Y-61484500D01*
X137982648Y-61484500D01*
X137958329Y-61488351D01*
X137780465Y-61516522D01*
X137585776Y-61579781D01*
X137403386Y-61672715D01*
X137237786Y-61793028D01*
X137093028Y-61937786D01*
X136972715Y-62103386D01*
X136879781Y-62285776D01*
X136816522Y-62480465D01*
X136784500Y-62682648D01*
X136784500Y-62887351D01*
X136816522Y-63089534D01*
X136879781Y-63284223D01*
X136931385Y-63385500D01*
X136970639Y-63462540D01*
X136972715Y-63466613D01*
X137093028Y-63632213D01*
X137237786Y-63776971D01*
X137348502Y-63857409D01*
X137403390Y-63897287D01*
X137492512Y-63942697D01*
X137585776Y-63990218D01*
X137585778Y-63990218D01*
X137585781Y-63990220D01*
X137677551Y-64020038D01*
X137780465Y-64053477D01*
X137862954Y-64066542D01*
X137982648Y-64085500D01*
X137982649Y-64085500D01*
X138187351Y-64085500D01*
X138187352Y-64085500D01*
X138389534Y-64053477D01*
X138403842Y-64048827D01*
X138473682Y-64046831D01*
X138529841Y-64079076D01*
X140711284Y-66260520D01*
X140711286Y-66260521D01*
X140711290Y-66260524D01*
X140836488Y-66332806D01*
X140848216Y-66339577D01*
X141000943Y-66380501D01*
X141000945Y-66380501D01*
X141166654Y-66380501D01*
X141166670Y-66380500D01*
X141550398Y-66380500D01*
X141617437Y-66400185D01*
X141660883Y-66448205D01*
X141667715Y-66461614D01*
X141788028Y-66627213D01*
X141932786Y-66771971D01*
X142071882Y-66873028D01*
X142098390Y-66892287D01*
X142189840Y-66938883D01*
X142191080Y-66939515D01*
X142241876Y-66987490D01*
X142258671Y-67055311D01*
X142236134Y-67121446D01*
X142191080Y-67160485D01*
X142098386Y-67207715D01*
X141932786Y-67328028D01*
X141788028Y-67472786D01*
X141667715Y-67638386D01*
X141574781Y-67820776D01*
X141511522Y-68015465D01*
X141479500Y-68217648D01*
X141479500Y-68422351D01*
X141511522Y-68624534D01*
X141516173Y-68638848D01*
X141516606Y-68654059D01*
X141521924Y-68668315D01*
X141517582Y-68688271D01*
X141518165Y-68708690D01*
X141510076Y-68722775D01*
X141507072Y-68736588D01*
X141485921Y-68764842D01*
X141310286Y-68940478D01*
X141198481Y-69052282D01*
X141198475Y-69052290D01*
X141160532Y-69118011D01*
X141160532Y-69118013D01*
X141119423Y-69189214D01*
X141119423Y-69189215D01*
X141078499Y-69341943D01*
X141078499Y-69341945D01*
X141078499Y-69510046D01*
X141078500Y-69510059D01*
X141078500Y-74995794D01*
X141058815Y-75062833D01*
X141042181Y-75083475D01*
X139655313Y-76470343D01*
X139593990Y-76503828D01*
X139524298Y-76498844D01*
X139468365Y-76456972D01*
X139457147Y-76438957D01*
X139367914Y-76263828D01*
X139307658Y-76180894D01*
X139307658Y-76180893D01*
X138567962Y-76920589D01*
X138550925Y-76857007D01*
X138485099Y-76742993D01*
X138392007Y-76649901D01*
X138277993Y-76584075D01*
X138214409Y-76567037D01*
X138954105Y-75827340D01*
X138954104Y-75827338D01*
X138871174Y-75767087D01*
X138660802Y-75659897D01*
X138436247Y-75586934D01*
X138436248Y-75586934D01*
X138203052Y-75550000D01*
X137966948Y-75550000D01*
X137733752Y-75586934D01*
X137509197Y-75659897D01*
X137298830Y-75767084D01*
X137215894Y-75827340D01*
X137955591Y-76567037D01*
X137892007Y-76584075D01*
X137777993Y-76649901D01*
X137684901Y-76742993D01*
X137619075Y-76857007D01*
X137602037Y-76920591D01*
X136862340Y-76180894D01*
X136802084Y-76263830D01*
X136694897Y-76474197D01*
X136621934Y-76698752D01*
X136585000Y-76931947D01*
X136585000Y-77168052D01*
X136621934Y-77401248D01*
X136682673Y-77588182D01*
X136684668Y-77658023D01*
X136648588Y-77717856D01*
X136585887Y-77748684D01*
X136564742Y-77750500D01*
X132109499Y-77750500D01*
X132042460Y-77730815D01*
X131996705Y-77678011D01*
X131985499Y-77626500D01*
X131985499Y-76002129D01*
X131985498Y-76002123D01*
X131979091Y-75942517D01*
X131979090Y-75942514D01*
X131969922Y-75917931D01*
X131928797Y-75807671D01*
X131928793Y-75807664D01*
X131842547Y-75692455D01*
X131842544Y-75692452D01*
X131727335Y-75606206D01*
X131727328Y-75606202D01*
X131592482Y-75555908D01*
X131592483Y-75555908D01*
X131532883Y-75549501D01*
X131532881Y-75549500D01*
X131532873Y-75549500D01*
X131532864Y-75549500D01*
X129437129Y-75549500D01*
X129437123Y-75549501D01*
X129377516Y-75555908D01*
X129242671Y-75606202D01*
X129242664Y-75606206D01*
X129127455Y-75692452D01*
X129127452Y-75692455D01*
X129041206Y-75807664D01*
X129041202Y-75807671D01*
X128990908Y-75942517D01*
X128984501Y-76002116D01*
X128984501Y-76002123D01*
X128984500Y-76002135D01*
X127685500Y-76002135D01*
X127685500Y-58774500D01*
X127705185Y-58707461D01*
X127757989Y-58661706D01*
X127809500Y-58650500D01*
X130377873Y-58650500D01*
X130444912Y-58670185D01*
G37*
%TD.AperFunction*%
%TD*%
M02*
